<?xml version="1.0" encoding="UTF-8" standalone="no"?>
<!DOCTYPE svg PUBLIC "-//W3C//DTD SVG 1.1//EN" "http://www.w3.org/Graphics/SVG/1.1/DTD/svg11.dtd">
<svg width="100%" height="100%" viewBox="0 0 1000 1000" version="1.1" xmlns="http://www.w3.org/2000/svg" xmlns:xlink="http://www.w3.org/1999/xlink" xml:space="preserve" xmlns:serif="http://www.serif.com/" style="fill-rule:evenodd;clip-rule:evenodd;stroke-miterlimit:10;">
    <g transform="matrix(1,0,0,1,-455.679,5.70635)">
        <path d="M1181.91,292.89L1064.1,290.69L1053.49,290.48L1054.84,218.57C1054.87,216.9 1054.9,215.23 1054.93,213.56L1055.31,193.79C1056.89,194.38 1058.51,195 1060.08,195.65C1065.26,197.71 1070.3,199.93 1075.29,202.29C1080.62,204.86 1085.85,207.54 1090.98,210.43C1096.12,213.3 1101.18,216.31 1106.08,219.51C1107.98,220.75 1109.83,221.98 1111.7,223.26C1116.77,226.7 1121.71,230.33 1126.5,234.13C1129.02,236.07 1131.5,238.08 1133.9,240.16C1136.69,242.61 1139.47,245.06 1142.26,247.51C1145.39,250.35 1148.46,253.32 1151.46,256.36L1234,257.9C1236.87,258.01 1239.74,258.11 1242.6,258.22C1239.81,254.09 1237.01,249.97 1234.22,245.84C1233.23,244.48 1231.76,242.48 1229.94,240.11C1225.05,233.75 1219.93,227.55 1214.62,221.54C1211.81,218.37 1208.96,215.26 1206.08,212.21C1206.08,212.21 1206.08,212.2 1206.07,212.2C1159.58,164.38 1107.7,140.2 1100.02,136.7C1098.61,136.06 1095.9,134.83 1092.41,133.35C1084.47,129.96 1076.33,126.86 1068.06,124.05C1064.31,122.8 1060.49,121.59 1056.66,120.45C1047.36,117.7 1035.39,114.14 1020.85,111.82C1011.82,110.38 999.62,109.06 984.91,109.29L984.22,145.27L983.65,177.23L983.57,181.24L982.9,217.2L982.6,232.96L982.62,232.96L982.23,253.16L983.16,253.18L983.18,253.18L983.15,253.2L982.22,253.71L981.83,274.48L981.55,289.14C981.51,291.18 981.48,293.22 981.44,295.25L980.89,325.11C980.66,336.69 980.44,348.28 980.21,359.86C982.25,359.98 984.28,360.09 986.32,360.21C1008.07,361.19 1030.01,361.93 1052.13,362.42C1054.16,362.47 1056.19,362.51 1058.23,362.55L1082.01,362.98C1084.04,363.02 1086.08,363.06 1088.11,363.11L1124.07,363.78C1126.1,363.82 1128.12,363.86 1130.15,363.9L1153.95,364.34C1155.98,364.38 1158.02,364.42 1160.05,364.47L1173.5,364.73L1196.02,365.13C1198.05,365.17 1200.07,365.21 1202.1,365.24L1202.12,365.24L1217.75,365.53C1218.14,366.86 1218.56,368.21 1218.93,369.52C1219.66,371.87 1220.33,374.23 1220.97,376.61L1220.99,376.61C1221.55,378.67 1222.08,380.72 1222.56,382.81C1223.09,384.86 1223.56,386.97 1224.01,389.06C1224.92,393.22 1225.74,397.46 1226.46,401.69C1226.75,403.15 1226.99,404.58 1227.2,406.08C1228.1,411.87 1228.81,417.74 1229.33,423.66C1229.61,426.95 1229.85,430.24 1230,433.57C1230.08,434.96 1230.14,436.33 1230.19,437.73C1230.29,440.3 1230.37,442.85 1230.36,445.41C1230.39,447.91 1230.39,450.41 1230.33,452.91C1229.55,469.68 1228.27,482.35 1227.4,488.16C1227.22,489.39 1226.9,491.65 1226.08,496.16C1225.17,501.16 1224.61,504.74 1224.38,504.71C1224.38,504.71 1224.36,504.71 1224.36,504.7L1211.51,496.97L1175.96,475.51L1175.93,475.51L1171.13,472.64L1171.09,472.61L1171.14,472.61L1158.35,464.92L1157.89,464.63L1140.36,454.09L1131.48,448.72L1122.57,443.36L1109.53,435.48C1107.94,434.53 1106.36,433.58 1104.77,432.62L1087.01,421.91L1069.21,411.18L1051.43,400.46L1047.9,398.35L1019.04,397.81L1015.49,397.74L979.53,397.07L978.86,433.03L978.73,440.66L996.47,451.36L996.49,451.36L1014.29,462.11L1027.28,469.93C1028.87,470.89 1030.47,471.84 1032.06,472.8L1032.08,472.8L1049.86,483.53L1067.62,494.24L1067.64,494.24L1085.44,504.99L1088.83,507.05L1089.09,507.21L1103.2,515.7L1121,526.43L1138.76,537.14L1138.79,537.14L1150.46,544.18L1150.51,544.18L1150.53,544.2C1152.55,545.42 1154.57,546.65 1156.59,547.87L1174.33,558.57L1174.35,558.57L1192.15,569.32L1199.49,573.76L1209.91,580.03L1209.93,580.03L1212.08,581.33L1212.12,581.35L1227.71,590.76L1227.73,590.76L1245.48,601.45L1245.5,601.45L1259.46,609.88C1260.84,607.32 1262.18,604.76 1263.48,602.23C1265.92,597.43 1268.22,592.57 1270.41,587.68C1271.21,585.95 1271.96,584.22 1272.7,582.48C1273.46,580.73 1274.2,578.96 1274.92,577.18C1278.99,567.25 1282.59,557.11 1285.71,546.75C1286.16,545.31 1286.59,543.87 1286.98,542.48C1287.56,540.48 1288.1,538.53 1288.63,536.52L1288.66,536.52C1290.89,528.11 1292.84,519.58 1294.45,510.92C1294.78,509.15 1295.11,507.32 1295.41,505.54L1295.39,505.54C1295.39,505.54 1295.39,505.51 1295.4,505.51C1296.26,500.51 1296.98,495.56 1297.59,490.48L1297.61,490.44C1298.26,485.33 1298.77,480.22 1299.22,475.05C1299.44,472.1 1299.64,469.16 1299.77,466.18C1299.98,462.22 1300.12,458.24 1300.19,454.25C1300.24,452.11 1300.26,450.03 1300.25,447.94C1300.23,447.93 1300.25,447.91 1300.25,447.91L1300.25,447.89C1300.28,444.92 1300.24,442.03 1300.16,439.08C1300.05,434.03 1299.82,428.99 1299.47,423.98L1299.45,423.98C1299.08,418.62 1298.61,413.34 1297.99,408.09L1297.99,408.06C1297.81,406.37 1297.61,404.73 1297.37,403.06C1296.28,394.67 1294.87,386.39 1293.19,378.19L1293.19,378.17C1292.65,375.62 1292.08,373.1 1291.52,370.55C1291.24,369.35 1290.95,368.16 1290.65,366.95C1288.03,356.16 1284.87,345.54 1281.25,335.15C1280.75,333.67 1280.21,332.22 1279.67,330.77C1279.28,329.61 1278.82,328.43 1278.4,327.28C1275.55,319.71 1272.45,312.3 1269.09,305.03C1268.57,303.9 1268.03,302.76 1267.5,301.64C1266.35,299.25 1265.19,296.86 1264.01,294.51C1236.64,293.99 1209.27,293.47 1181.9,292.96L1181.91,292.89Z" style="fill:rgb(0,82,76);fill-rule:nonzero;"/>
    </g>
    <g transform="matrix(1,0,0,1,-455.679,5.70635)">
        <path d="M1226.99,632.21L1209.17,621.49L1205.51,619.27L1201.82,617.06L1191.38,610.77L1180.77,604.36L1173.58,600.03L1155.83,589.33L1140.22,579.94C1139.47,579.49 1138.72,579.05 1137.97,578.6L1120.24,567.88L1102.44,557.15L1084.65,546.44L1078.59,542.81L1066.84,535.74L1049.09,525.04L1031.27,514.32L1016.96,505.69C1015.8,504.99 1014.65,504.28 1013.49,503.58L995.68,492.88L977.91,482.16L960.11,471.43L960.08,471.43L959.96,471.49L941.95,481.49L923.75,491.54L905.59,501.57C904.4,502.22 903.22,502.87 902.03,503.53L887.4,511.62L869.22,521.66L851.06,531.72L851.03,531.72L839.11,538.33L839.06,538.33L832.87,541.77L814.69,551.81L814.64,551.81L796.53,561.82C796.53,561.83 796.51,561.85 796.5,561.86L778.36,571.91C777.62,572.32 776.88,572.72 776.15,573.13L776.1,573.13L760.19,581.95L760.15,581.97L742.02,591.98L741.99,591.98L741.89,592.03L731.96,597.55L731.94,597.55L723.85,602.02L723.79,602.05L713.19,607.92L713.13,607.95L705.67,612.08L705.62,612.08L687.49,622.1L687.47,622.1L670.58,631.45L670.58,631.47C671.09,632.25 671.59,633.05 672.12,633.84L672.12,633.86C674.18,637.02 676.3,640.13 678.46,643.25C681.16,647.12 683.96,650.94 686.84,654.69L686.86,654.73L686.88,654.73C688.43,656.8 690.02,658.83 691.68,660.88C696.84,667.38 702.26,673.68 707.9,679.77L707.88,679.77C710.62,682.71 713.39,685.6 716.18,688.44L716.18,688.47C718.16,690.39 720.1,692.34 722.1,694.24L722.13,694.24C729.3,701.14 736.72,707.66 744.48,713.91L744.46,713.91C745.54,714.78 746.62,715.63 747.7,716.49C747.7,716.49 747.73,716.49 747.72,716.53C750.94,719.02 754.19,721.5 757.51,723.94L757.54,723.94C763.83,728.5 770.3,732.9 776.93,737.06L776.91,737.06C782.19,740.41 787.56,743.59 793.05,746.65C793.05,746.65 793.07,746.64 793.08,746.65C797.41,749.04 801.76,751.36 806.2,753.57C806.2,753.57 806.22,753.56 806.24,753.6C808.9,754.95 811.63,756.23 814.33,757.5C819.07,759.71 823.88,761.82 828.75,763.82C838.34,767.74 848.17,771.28 858.18,774.36L858.16,774.36C860.25,775.01 862.36,775.61 864.47,776.23L864.49,776.23C876.2,779.57 888.13,782.3 900.32,784.4C903.94,785.04 907.59,785.61 911.27,786.12C916.83,786.89 922.34,787.52 927.94,788.02L927.94,788L918.33,782.24L918.31,782.24L918.3,782.24L918.28,782.24L900.55,771.54L882.76,760.77L882.73,760.77L872.9,754.83L872.88,754.83L872.87,754.83L864.99,750.08L864.99,750.06L847.18,739.33L829.38,728.65L811.61,717.93L811.61,717.91L811.27,717.71L811.24,717.71L805.34,714.12L804.49,713.62L793.83,707.22L776.08,696.52L776.04,696.49L776.04,696.47L758.27,685.8L749.65,680.57L749.65,680.55C746.57,678.71 743.51,676.87 740.45,675.02L740.47,675.02L758.63,664.98L758.63,665L758.68,664.98L758.68,664.96L776.79,654.93C788.92,648.24 801.06,641.54 813.19,634.85L813.21,634.85L822.64,640.55L830.97,645.56L830.97,645.58L831.82,646.11L831.9,646.11L848.75,656.28L848.75,656.3L866.54,666.99L866.54,667.01L884.34,677.72L884.34,677.74L893.48,683.25C893.51,683.26 893.53,683.28 893.56,683.29L902.13,688.43L902.13,688.45L919.9,699.15L919.92,699.15L937.71,709.9L953.55,719.43C953.55,719.43 953.57,719.42 953.6,719.43C954.24,719.82 954.87,720.21 955.51,720.6L955.51,720.62C961.44,724.19 967.36,727.76 973.28,731.32L991.07,742.03L991.07,742.06L1008.87,752.76L1016.77,757.53L1016.8,757.53L1026.63,763.47L1026.65,763.47L1044.45,774.19L1044.47,774.23L1049.46,777.22C1060.04,774.29 1070.43,770.89 1080.55,767C1084.92,765.32 1089.21,763.61 1093.47,761.77C1095.51,760.87 1097.54,759.98 1099.58,759.08L1099.62,759.06C1105.45,756.42 1111.19,753.62 1116.85,750.61L1116.85,750.63C1121.77,748.08 1126.63,745.39 1131.39,742.59L1131.39,742.57L1117.17,734.02L1117.17,734.05C1105.3,726.89 1093.44,719.73 1081.59,712.57L1063.79,701.84L1060.41,699.79L1060.39,699.79L1046.01,691.13L1037.4,685.92L1028.21,680.39L1010.46,669.69L992.64,658.97L975.78,648.79L974.85,648.77L974.85,648.74L974.86,648.6L974.86,648.25L957.05,637.52L939.3,626.82L939.28,626.82L935.89,624.76L935.65,624.62L921.5,616.12L921.5,616.1L914.16,611.67L903.71,605.36L885.91,594.63L904.11,584.58C909.42,581.65 914.72,578.72 920.03,575.79L922.26,574.56L940.46,564.51C946.51,561.16 952.57,557.8 958.62,554.45L976.42,565.18L994.21,575.89L996.37,577.22L996.4,577.22L996.41,577.25L996.44,577.25L996.47,577.27L1012,586.62L1012,586.64L1029.79,597.33L1029.79,597.35L1047.59,608.06L1057.98,614.32L1058.02,614.35L1058,614.35L1058.02,614.4L1058.06,614.38L1058.09,614.38C1066.44,619.42 1074.8,624.45 1083.15,629.49L1100.9,640.23L1100.9,640.25L1118.71,650.98L1119.59,651.49L1119.63,651.52L1119.68,651.52C1123.35,653.72 1127.02,655.93 1130.68,658.14L1136.47,661.68L1136.49,661.68L1154.29,672.4L1172.08,683.11L1181.22,688.64L1181.25,688.64C1185.64,690.9 1190.04,693.15 1194.43,695.4C1196.48,693.26 1198.54,691.13 1200.59,688.99C1202.96,686.56 1211.47,677.88 1218.8,669.25C1221.41,666.18 1223.99,663.07 1226.49,659.9C1227.19,659.01 1227.63,658.41 1230.92,654.08C1232.24,652.35 1234.22,649.74 1235.49,648.07L1235.51,648.07C1237.3,645.56 1239.08,643.09 1240.79,640.55C1236.2,637.77 1231.61,634.99 1227.02,632.21L1226.99,632.21ZM759.23,632.31L759.2,632.31L759.22,632.29L759.22,632.31L759.23,632.31ZM973.45,720.74L973.47,720.74L973.47,720.76L973.47,720.74L973.45,720.74ZM976.77,544.45L976.77,544.43L976.77,544.42L976.77,544.45Z" style="fill:white;fill-rule:nonzero;"/>
    </g>
    <g transform="matrix(1,0,0,1,-455.679,5.70635)">
        <path d="M876.87,116.03C872.45,117.1 868.16,118.25 863.99,119.48L863.96,119.48C856.09,121.74 848.32,124.28 840.68,127.1L840.65,127.1C839.36,127.59 838.08,128.05 836.79,128.55C828.66,132.27 820.53,135.98 812.4,139.7C801.42,145.05 792.56,150 786.08,153.81C779.84,157.48 774.64,160.79 770.9,163.17C763.91,167.61 758.07,171.51 753.71,174.49C753.19,174.87 752.67,175.26 752.14,175.66C751.62,176.06 751.11,176.45 750.6,176.86C750.52,176.91 750.46,176.94 750.38,177.01C743.88,182 737.61,187.2 731.52,192.64L731.48,192.66C728.16,195.63 724.89,198.65 721.68,201.74C718.17,205.11 714.72,208.58 711.38,212.1C706.26,217.44 701.34,222.94 696.63,228.62C696,229.34 695.39,230.09 694.8,230.82C690.3,236.25 686,241.81 681.87,247.52C679.5,250.8 677.16,254.14 674.9,257.52C674.34,258.37 673.77,259.22 673.21,260.07C668.26,267.53 663.63,275.21 659.31,283.08C658.79,283.99 658.31,284.93 657.78,285.84C657.33,286.69 656.88,287.54 656.44,288.39C651.35,298.03 646.68,307.95 642.52,318.13C642.43,318.31 642.36,318.52 642.26,318.73C641.91,319.57 641.59,320.4 641.24,321.24C636.94,332.06 633.17,343.16 629.96,354.49C629.78,355.05 629.64,355.61 629.48,356.16C628.37,360.12 627.36,364.13 626.41,368.14C624.67,375.44 623.16,382.86 621.88,390.32C621.72,391.3 621.57,392.3 621.37,393.3C620.68,397.67 620.08,402.05 619.53,406.48C619.27,408.78 619.01,411.11 618.77,413.46C618.35,417.69 618.01,421.95 617.75,426.22C617.59,428.42 617.49,430.63 617.38,432.87C617.23,435.68 617.17,438.55 617.12,441.38C617.03,446.1 617.02,450.77 617.15,455.45C617.18,457.7 617.26,459.95 617.33,462.18C617.53,466.6 617.79,470.97 618.17,475.32L618.15,475.32L618.22,476.34C618.73,482.54 619.42,488.71 620.26,494.83C620.42,495.95 620.57,497.09 620.74,498.24C621.9,506.05 623.35,513.8 625.01,521.44L625.01,521.46C625.78,524.98 626.61,528.44 627.49,531.94C627.69,532.75 627.92,533.54 628.12,534.35C631.02,545.46 634.47,556.34 638.43,566.97L639.78,570.54C640.09,571.34 640.38,572.12 640.71,572.91L640.71,572.93C644.11,581.55 647.84,590.02 651.92,598.32C652.22,598.91 652.54,599.54 652.84,600.13L670.03,590.6L670.06,590.6L688.23,580.57L688.26,580.57L704.17,571.76L706.42,570.51L706.45,570.51L714.11,566.26C709.31,556.39 705.1,546.19 701.52,535.71C701.16,534.72 700.81,533.7 700.52,532.67C699.46,529.53 698.48,526.35 697.56,523.16L697.56,523.14C695.35,515.4 693.44,507.55 691.94,499.55C691.7,498.58 691.51,497.6 691.38,496.62C690.92,493.81 690.46,490.99 690.01,488.18C689.97,488.15 689.99,488.14 689.98,488.12C689.33,483.97 688.82,479.83 688.4,475.64C687.98,471.61 687.65,467.55 687.43,463.49C687.32,461.63 687.24,459.73 687.18,457.85C686.99,452.83 686.93,447.78 687.03,442.69C687.1,439.44 687.21,436.22 687.39,433.04C687.48,431.21 687.6,429.36 687.74,427.53C688.01,423.57 688.38,419.7 688.85,415.82C689.57,409.59 690.5,403.41 691.68,397.36L691.68,397.29L691.68,397.21C691.89,396.12 692.09,395.07 692.31,394L709.55,404.39L727.35,415.12L745.12,425.84L749.88,428.69L762.92,436.57L780.71,447.28L798.51,458.01L811.5,465.84C813.09,466.8 814.69,467.77 816.28,468.73L834.08,479.46L851.85,490.18L888.22,470.08C889.85,469.18 891.49,468.28 893.12,467.37L924.59,449.98L906.8,439.27L893.74,431.4L889,428.54L871.23,417.82L853.43,407.09L835.66,396.37L832.12,394.25L817.86,385.64L800.07,374.93L782.27,364.2L770.5,357.1L794.31,357.55C796.34,357.59 798.38,357.62 800.41,357.66L836.38,358.34C838.4,358.38 840.41,358.41 842.43,358.45L866.22,358.91L872.35,359.01L908.3,359.71C910.33,359.75 912.37,359.78 914.4,359.82L938.17,360.26C940.18,360.23 942.2,360.2 944.21,360.17C944.25,359.07 944.29,357.96 944.33,356.86C944.53,346.04 944.74,335.23 944.94,324.41L945.51,294.57C945.54,292.53 945.57,290.49 945.61,288.45L946.29,253.05L945.33,252.48L946.3,252.48L946.96,216.52L947.64,180.55C947.67,179.13 947.69,177.71 947.72,176.3L948.31,144.59L948.99,108.62C927.47,108.01 903.04,109.74 876.91,116.04L876.87,116.03ZM875.49,189.38L873.65,287.09C870.11,287.02 866.56,286.96 863.02,286.89L848.27,286.62C844.74,286.55 841.22,286.49 837.69,286.42L741.4,284.6C746.41,277.89 751.78,271.44 757.41,265.23C760.29,262.05 763.24,258.93 766.27,255.91L766.3,255.87C771.9,250.72 777.5,245.56 783.1,240.41C783.48,240.07 783.9,239.75 784.29,239.43C790.26,234.41 796.46,229.66 802.84,225.19L802.86,225.19C807.15,222.16 811.51,219.29 815.97,216.53C817.29,215.73 818.61,214.93 819.93,214.13C826.19,210.37 832.64,206.89 839.23,203.68C839.23,203.68 839.25,203.67 839.23,203.65C841.58,202.5 843.94,201.39 846.32,200.31C846.32,200.31 849.97,198.65 853.51,197.16C862.42,193.41 873.61,189.66 875.49,189.03L875.49,189.38Z" style="fill:rgb(109,206,178);fill-rule:nonzero;"/>
    </g>
    <g transform="matrix(1,0,0,1,-455.679,5.70635)">
        <g>
            <g>
                <path d="M1347.95,229.65C1346.94,224.78 1345.66,220.17 1344.14,215.92C1342.55,211.71 1340.79,207.82 1338.98,204.29C1337.08,200.81 1335.15,197.67 1333.29,194.91C1331.42,192.16 1329.54,189.82 1327.92,187.84C1329.02,190.87 1329.87,193.68 1330.43,196.35C1330.98,199.03 1331.3,201.51 1331.47,203.8C1331.82,208.36 1331.39,212.24 1330.77,215.35C1329.61,221.13 1327.63,225.56 1325.58,230.44C1324.58,232.87 1323.6,235.39 1322.76,238.19C1322.34,239.59 1321.96,241.06 1321.63,242.62C1321.31,244.18 1321.02,245.84 1320.74,247.64C1320.06,252.28 1320.01,256.11 1320.09,258.68C1318.71,257.23 1316.95,255.51 1314.8,253.7C1313.73,252.8 1312.55,251.87 1311.28,250.95C1309.99,250.04 1308.56,249.16 1307.06,248.29C1303.75,246.4 1300.73,245.09 1298.22,244.17C1295.71,243.24 1293.63,242.75 1292.31,242.38C1290.44,241.87 1288.39,241.23 1286.18,240.44C1283.97,239.64 1281.59,238.67 1278.98,237.55C1276.39,236.42 1273.64,235.08 1270.75,233.51C1267.79,231.98 1264.7,230.21 1261.45,228.18C1262.05,231.03 1263.08,234.85 1264.69,239.22C1265.86,242.52 1267.25,245.52 1268.64,248.32C1270,251.13 1271.46,253.67 1272.94,255.93C1275.81,260.5 1278.66,264.01 1280.99,266.21C1290.25,275.42 1301.72,281.31 1311.98,285.45C1317.09,287.51 1321.97,289.07 1326.15,290.23C1328.25,290.8 1330.12,291.3 1331.75,291.71C1333.39,292.12 1334.79,292.43 1335.9,292.67C1337.24,290.57 1339.15,287.55 1340.92,283.78C1342.73,280 1344.61,275.39 1346.2,270C1349.31,259.27 1350.93,245.44 1347.95,229.66L1347.95,229.65Z" style="fill:white;fill-rule:nonzero;"/>
                <path d="M1282.68,193.78C1290.83,205.23 1298.41,217.06 1305.37,229.24L1307.96,233.82C1308.83,235.34 1309.69,236.87 1310.49,238.43L1315.38,247.74L1319.98,257.19C1321.55,260.32 1322.95,263.53 1324.36,266.73" style="fill:white;fill-rule:nonzero;stroke:white;stroke-width:2.8px;"/>
            </g>
            <g>
                <path d="M1390.24,344.38C1390.58,339.4 1390.55,334.6 1390.26,330.07C1390.15,327.8 1389.84,325.62 1389.49,323.53C1389.15,321.43 1388.76,319.4 1388.33,317.46C1387.46,313.58 1386.54,310 1385.43,306.86C1384.29,303.72 1383.14,300.97 1382.08,298.62C1382.35,301.83 1382.4,304.78 1382.27,307.49C1382.23,308.84 1382.08,310.15 1381.89,311.4C1381.71,312.65 1381.5,313.84 1381.26,314.97C1380.3,319.49 1378.91,323.1 1377.52,325.93C1376.21,328.56 1374.85,330.79 1373.26,332.92C1371.7,335.04 1370.07,337.03 1368.46,339.11C1365.22,343.26 1362,347.78 1359.25,354.38C1357.33,358.67 1356.18,362.36 1355.54,364.85C1353.71,361.31 1350.84,356.26 1345.83,351.33C1340.45,345.91 1335.63,343.08 1333.3,341.67C1329.94,339.7 1325.99,337.07 1321.66,333.49C1320.58,332.6 1319.48,331.64 1318.35,330.63C1317.23,329.61 1316.06,328.54 1314.82,327.42C1312.37,325.16 1309.84,322.64 1307.26,319.82C1307.09,322.72 1307.02,326.69 1307.5,331.3C1307.78,334.78 1308.17,338.07 1308.79,341.12C1309.09,342.64 1309.44,344.11 1309.81,345.51C1310.2,346.91 1310.58,348.26 1310.95,349.55C1312.41,354.71 1314.26,358.83 1315.9,361.56C1316.78,362.96 1317.63,364.33 1318.47,365.68C1319.34,367.02 1320.25,368.31 1321.21,369.57C1323.12,372.08 1325.19,374.44 1327.35,376.66C1328.41,377.77 1329.58,378.83 1330.62,379.88C1331.68,380.93 1332.76,381.94 1333.85,382.92C1336.03,384.88 1338.25,386.69 1340.45,388.38C1342.65,390.06 1344.83,391.61 1346.93,393.02C1349.02,394.43 1351.06,395.69 1352.83,396.83C1356.43,399.1 1359.48,400.79 1361.48,401.86C1363.37,400.21 1365.94,397.83 1368.82,394.68C1371.67,391.53 1374.61,387.62 1377.58,382.87C1379.05,380.49 1380.51,377.91 1381.9,375.11C1382.6,373.71 1383.28,372.26 1383.93,370.75C1384.54,369.25 1385.1,367.71 1385.65,366.1C1386.73,362.9 1387.7,359.48 1388.5,355.86C1389.28,352.24 1390.01,348.39 1390.21,344.41L1390.24,344.38Z" style="fill:white;fill-rule:nonzero;"/>
                <path d="M1336.89,292.3C1346.5,318.7 1353.53,346.01 1357.58,373.71" style="fill:white;fill-rule:nonzero;stroke:white;stroke-width:2.8px;"/>
            </g>
            <g>
                <path d="M1399.16,466.86C1402.78,457.54 1404.48,448.5 1405.07,440.53C1405.65,432.55 1405.12,425.64 1404.39,420.44C1403.13,426.89 1401.15,432.01 1398.98,436.1C1396.81,440.19 1394.42,443.25 1392.26,445.58C1388.22,449.88 1384.1,452.57 1379.82,455.62C1377.68,457.14 1375.53,458.76 1373.34,460.69C1371.12,462.61 1368.86,464.85 1366.57,467.62C1363.53,471.19 1361.49,474.41 1360.14,476.61C1359.39,472.69 1357.9,467.02 1354.66,460.88C1351.1,454.15 1347.17,450.05 1345.32,448.03C1344.03,446.61 1342.64,444.98 1341.16,443.13C1339.7,441.28 1338.17,439.21 1336.58,436.89C1333.42,432.26 1330.07,426.63 1326.62,419.97C1325.69,422.64 1324.51,426.33 1323.58,430.82C1320.77,444.24 1321.57,455.94 1323.03,462.14C1326.09,474.89 1332.55,486 1339.06,494.97C1342.38,499.45 1345.59,503.35 1348.51,506.55C1351.43,509.75 1353.88,512.21 1355.51,513.8C1357.79,512.73 1360.9,511.16 1364.45,508.92C1368.01,506.68 1372.12,503.79 1376.25,500.05C1384.58,492.62 1393.38,481.82 1399.17,466.87L1399.16,466.86Z" style="fill:white;fill-rule:nonzero;"/>
                <path d="M1362.54,401.76C1362.97,408.77 1363.59,415.77 1363.63,422.8C1363.75,429.82 1363.64,436.84 1363.35,443.84C1363.05,450.85 1362.62,457.84 1361.94,464.82C1361.66,468.31 1361.21,471.79 1360.86,475.27C1360.4,478.74 1360.02,482.22 1359.49,485.68" style="fill:white;fill-rule:nonzero;stroke:white;stroke-width:2.8px;"/>
            </g>
            <g>
                <path d="M1374.43,586.29C1377.4,582.26 1379.81,578.15 1381.94,574.16C1383.97,570.14 1385.61,566.2 1386.98,562.48C1388.25,558.73 1389.24,555.19 1390.01,551.96C1390.75,548.72 1391.2,545.78 1391.55,543.24C1390.07,546.09 1388.57,548.61 1387,550.83C1385.41,553.04 1383.8,554.96 1382.23,556.63C1379.11,559.98 1375.98,562.29 1373.28,563.95C1368.28,567.03 1363.62,568.56 1358.67,570.38C1353.72,572.2 1348.72,574.39 1342.74,578.5C1338.89,581.16 1336.12,583.75 1334.2,585.51C1334.39,583.54 1334.44,581.07 1334.28,578.25C1334.11,575.43 1333.79,572.29 1333.02,568.9C1331.26,561.45 1328.65,556.51 1327.34,554.05C1326.45,552.33 1325.52,550.39 1324.6,548.22C1323.69,546.05 1322.78,543.65 1321.83,540.96C1320.9,538.28 1320.03,535.36 1319.21,532.16C1318.33,528.94 1317.54,525.46 1316.84,521.68C1315.16,524.06 1313.02,527.42 1310.92,531.59C1309.28,534.69 1308.02,537.76 1306.91,540.68C1305.78,543.59 1304.91,546.39 1304.25,549.01C1303.53,551.61 1303.02,554.03 1302.69,556.2C1302.53,557.29 1302.41,558.31 1302.33,559.26C1302.23,560.21 1302.16,561.07 1302.13,561.86C1301.83,574.96 1305.03,587.25 1309.08,597.66C1312.93,607.94 1317.69,616.24 1319.92,620.14C1324.93,619.33 1333.49,617.34 1343.6,612.38C1346.08,611.12 1348.65,609.67 1351.27,608C1353.89,606.33 1356.59,604.46 1359.18,602.3C1361.8,600.15 1364.43,597.76 1367.03,595.11C1369.54,592.43 1372.03,589.49 1374.43,586.26L1374.43,586.29Z" style="fill:white;fill-rule:nonzero;"/>
                <path d="M1356.52,514.01C1350.73,541.51 1342.28,568.4 1331.24,594.13" style="fill:white;fill-rule:nonzero;stroke:white;stroke-width:2.8px;"/>
            </g>
            <g transform="matrix(1,0,0,1,0,0.153792)">
                <path d="M1318.36,695.23C1322.27,692.12 1325.8,688.86 1328.95,685.59C1332.01,682.26 1334.67,678.89 1337.01,675.66C1337.59,674.85 1338.16,674.05 1338.69,673.25C1339.21,672.44 1339.7,671.65 1340.18,670.86C1341.13,669.29 1342.01,667.76 1342.81,666.29C1344.4,663.35 1345.77,660.69 1346.73,658.29C1344.61,660.7 1342.33,662.66 1340.23,664.39C1338.1,666.11 1336.05,667.54 1334.09,668.74C1330.15,671.12 1326.46,672.47 1323.43,673.36C1320.6,674.17 1317.96,674.62 1315.38,674.93C1312.81,675.24 1310.21,675.36 1307.6,675.57C1304.98,675.77 1302.29,676.04 1299.41,676.56C1296.52,677.06 1293.53,677.89 1290.05,679.01C1285.6,680.49 1282.15,682.16 1279.9,683.38C1280.58,681.5 1281.33,679.15 1281.98,676.42C1282.63,673.69 1283.19,670.58 1283.34,667.08C1283.71,659.45 1282.58,654 1281.97,651.27C1281.18,647.47 1280.51,642.81 1280.25,637.23C1280.06,634.4 1279.98,631.34 1280.04,628.05C1280.07,626.4 1280.16,624.71 1280.24,622.93C1280.3,621.14 1280.4,619.29 1280.55,617.38C1279.44,618.3 1278.15,619.42 1276.77,620.75C1275.37,622.07 1273.79,623.54 1272.22,625.25C1267.58,630.4 1263.78,635.41 1261.15,640.1C1258.33,644.66 1256.55,648.79 1255.63,651.83C1254.59,654.91 1253.83,658.02 1253.29,661.15C1253.02,662.71 1252.81,664.29 1252.63,665.84C1252.42,667.37 1252.26,668.91 1252.15,670.43C1251.68,676.53 1251.96,682.6 1252.33,688.03C1253.19,698.99 1255.48,708.33 1256.52,712.67C1261.6,713.32 1270.3,713.75 1281.4,711.79C1292.45,709.82 1305.52,705.04 1318.35,695.25L1318.36,695.23Z" style="fill:white;fill-rule:nonzero;"/>
                <path d="M1320.85,620.65C1314.46,633.16 1307.28,645.26 1299.56,656.96C1295.78,662.87 1291.62,668.52 1287.57,674.23C1283.28,679.77 1279.15,685.43 1274.6,690.76" style="fill:white;fill-rule:nonzero;stroke:white;stroke-width:2.8px;"/>
            </g>
            <g>
                <path d="M1233.98,784.29C1243.24,780.5 1251.21,775.76 1257.37,770.69C1260.47,768.18 1263.3,765.78 1265.63,763.38C1267.95,760.97 1269.93,758.71 1271.58,756.73C1268.81,758.39 1266.17,759.74 1263.68,760.83C1263.06,761.1 1262.44,761.36 1261.84,761.6C1261.22,761.82 1260.61,762.03 1260.01,762.23C1258.81,762.62 1257.65,762.96 1256.52,763.24C1252.03,764.38 1248.18,764.73 1245.02,764.73C1243.55,764.73 1242.17,764.67 1240.81,764.53C1239.44,764.38 1238.12,764.18 1236.82,763.95C1234.23,763.49 1231.74,762.91 1229.17,762.38C1226.6,761.85 1223.95,761.36 1221.06,761.06C1219.61,760.91 1218.11,760.82 1216.51,760.77C1214.89,760.7 1213.18,760.69 1211.37,760.76C1206.69,760.94 1202.92,761.58 1200.41,762.12C1201.59,760.5 1202.96,758.45 1204.35,756.01C1205.04,754.79 1205.74,753.47 1206.41,752.05C1207.08,750.63 1207.74,749.13 1208.29,747.46C1210.77,740.21 1211.15,734.61 1211.41,731.9C1211.76,728.09 1212.33,723.32 1213.64,717.89C1215.01,712.51 1216.74,706.06 1219.52,698.98C1216.85,700.1 1213.26,701.77 1209.35,704.22C1206.37,706 1203.59,707.79 1201.15,709.69C1198.69,711.57 1196.54,713.53 1194.53,715.29C1192.55,717.09 1190.85,718.86 1189.43,720.52C1188.01,722.18 1186.88,723.74 1185.97,725C1182.25,730.3 1179.65,736.23 1177.42,741.88C1175.26,747.61 1173.82,753.5 1172.66,758.84C1171.54,764.23 1170.87,769.33 1170.46,773.64C1170,777.88 1169.82,781.37 1169.74,783.64C1172.05,784.61 1175.31,785.88 1179.39,787.06C1183.43,788.17 1188.29,789.21 1193.88,789.81C1205.02,791.01 1218.92,790.12 1234,784.3L1233.98,784.29Z" style="fill:white;fill-rule:nonzero;"/>
                <path d="M1257.27,713.37C1237.85,733.67 1216.47,752.08 1193.23,767.71" style="fill:white;fill-rule:nonzero;stroke:white;stroke-width:2.8px;"/>
            </g>
            <g>
                <path d="M1128.41,846.14C1133.35,845.6 1138.04,844.74 1142.42,843.65C1146.76,842.46 1150.79,841.06 1154.47,839.59C1158.15,838.12 1161.41,836.39 1164.33,834.81C1167.24,833.19 1169.8,831.68 1171.89,830.17C1168.82,831.06 1165.86,831.49 1163.16,831.82C1160.45,832.13 1157.96,832.23 1155.67,832.18C1153.39,832.16 1151.28,831.9 1149.37,831.57C1147.46,831.24 1145.75,830.82 1144.23,830.37C1138.6,828.69 1134.37,826.27 1129.7,823.78C1127.38,822.55 1124.96,821.34 1122.26,820.25C1119.55,819.14 1116.57,818.22 1113.04,817.34C1108.49,816.24 1104.68,815.84 1102.12,815.68C1103.69,814.44 1105.57,812.84 1107.57,810.87C1109.57,808.89 1111.69,806.55 1113.68,803.67C1118.07,797.42 1120.01,792.17 1120.97,789.54C1122.33,785.9 1124.29,781.63 1127.06,776.73C1128.43,774.24 1130,771.61 1131.84,768.86C1132.75,767.48 1133.74,766.1 1134.77,764.63C1135.79,763.15 1136.87,761.64 1138.03,760.1C1136.6,760.28 1134.9,760.54 1133.02,760.92C1131.13,761.29 1128.99,761.69 1126.74,762.29C1120.03,764.15 1114.1,766.42 1109.33,768.96C1104.49,771.36 1100.73,773.92 1098.31,776.01C1093.24,780.16 1089.05,785.09 1085.38,790.02C1083.55,792.5 1081.92,795.12 1080.38,797.62C1078.84,800.13 1077.46,802.66 1076.2,805.14C1073.7,810.14 1071.68,814.78 1070.15,818.81C1068.61,822.83 1067.54,826.19 1066.88,828.38C1068.86,829.91 1071.66,831.92 1075.28,834.1C1078.9,836.28 1083.33,838.63 1088.52,840.61C1091.12,841.62 1093.91,842.57 1096.9,843.42C1099.88,844.25 1103.03,844.9 1106.38,845.44C1113.09,846.57 1120.44,846.79 1128.43,846.11L1128.41,846.14Z" style="fill:white;fill-rule:nonzero;"/>
                <path d="M1170.25,784.53L1165.69,787.16C1164.17,788.04 1162.65,788.92 1161.09,789.73L1151.79,794.67C1148.68,796.3 1145.49,797.78 1142.35,799.34C1140.77,800.1 1139.2,800.89 1137.62,801.64L1132.82,803.79L1128.02,805.94L1125.62,807.01L1123.19,808.01L1113.47,812.01L1103.64,815.72C1102.01,816.36 1100.35,816.93 1098.7,817.49L1093.73,819.2" style="fill:white;fill-rule:nonzero;stroke:white;stroke-width:2.8px;"/>
            </g>
            <g>
                <path d="M1011.33,878.45C1021.16,879.93 1030.27,879.71 1038.05,878.59C1040,878.32 1041.87,878 1043.65,877.66C1045.43,877.31 1047.12,876.89 1048.71,876.48C1051.9,875.63 1054.73,874.81 1057.12,873.91C1053.94,873.95 1051,873.66 1048.33,873.3C1045.65,872.92 1043.24,872.42 1041.04,871.75C1036.64,870.44 1033.19,868.8 1030.48,867.17C1025.45,864.1 1021.96,860.67 1018.07,857.16C1014.18,853.61 1009.92,850.15 1003.51,846.8C999.38,844.68 995.77,843.3 993.33,842.5C995.16,841.69 997.38,840.65 999.8,839.21C1002.22,837.75 1004.85,835.98 1007.5,833.72C1010.4,831.23 1012.65,828.83 1014.37,826.77C1016.08,824.67 1017.28,822.93 1018.07,821.81C1019.19,820.23 1020.49,818.54 1022,816.71C1023.51,814.87 1025.23,812.91 1027.2,810.89C1029.17,808.89 1031.37,806.71 1033.86,804.49C1035.1,803.38 1036.41,802.26 1037.8,801.12C1039.18,799.95 1040.63,798.76 1042.15,797.57C1040.7,797.38 1038.98,797.2 1037.04,797.09C1035.09,796.94 1032.91,796.84 1030.56,796.86C1016.49,796.98 1005.15,800.31 999.38,803.1C987.52,808.85 978.16,817.6 970.87,825.92C963.62,834.23 958.48,842.1 956.03,845.97C959.04,849.97 964.79,856.82 973.92,863.34C983.02,869.85 995.54,876.04 1011.32,878.47L1011.33,878.45Z" style="fill:white;fill-rule:nonzero;"/>
                <path d="M1067.13,829.41C1040,836.74 1012.25,841.6 984.34,843.84" style="fill:white;fill-rule:nonzero;stroke:white;stroke-width:2.8px;"/>
            </g>
        </g>
        <g>
            <g>
                <path d="M563.31,229.56C565.18,219.76 568.52,211.22 572.18,204.21C575.85,197.18 579.86,191.67 583.13,187.72C578.73,199.81 579.17,209.01 580.41,215.22C581.55,220.97 583.68,225.46 585.66,230.29C586.65,232.7 587.66,235.23 588.5,238.02C589.33,240.81 590.06,243.91 590.57,247.48C591.19,252.08 591.31,255.95 591.24,258.51C592.61,257.05 594.34,255.31 596.49,253.5C598.68,251.71 601.21,249.81 604.23,248.07C610.81,244.24 616.34,242.85 618.96,242.1C626.42,240.03 636.77,235.9 649.81,227.76C649.18,230.59 648.21,234.44 646.6,238.82C641.82,251.92 634.94,261.43 630.39,265.93C621.05,275.15 609.68,281.12 599.39,285.26C594.22,287.31 589.39,288.89 585.25,290.07C581.09,291.24 577.69,292.03 575.47,292.51C574.1,290.4 572.3,287.42 570.47,283.63C569.55,281.73 568.61,279.63 567.69,277.33C566.78,275.03 565.95,272.54 565.16,269.86C562.04,259.14 560.34,245.31 563.32,229.57L563.31,229.56Z" style="fill:white;fill-rule:nonzero;"/>
                <path d="M628.41,193.45C612.18,216.39 598.33,240.95 586.95,266.54" style="fill:white;fill-rule:nonzero;stroke:white;stroke-width:2.8px;"/>
            </g>
            <g>
                <path d="M521.12,344.2C520.78,339.22 520.73,334.4 521.14,329.91C521.32,327.66 521.57,325.47 521.87,323.36C522.21,321.26 522.6,319.24 523.02,317.29C523.84,313.39 524.91,309.87 525.99,306.72C526.53,305.15 527.07,303.66 527.62,302.28C528.18,300.91 528.74,299.64 529.27,298.47C529.13,300.07 529.05,301.61 529.02,303.08C529.01,304.56 529.06,305.99 529.14,307.35C529.31,310.07 529.63,312.55 530.08,314.8C531.04,319.32 532.43,322.93 533.83,325.76C536.48,331.03 539.7,334.8 542.87,338.94C546.11,343.09 549.31,347.61 552.16,354.23C554.06,358.52 555.09,362.19 555.75,364.68C556.64,362.9 557.92,360.78 559.5,358.46C560.3,357.3 561.18,356.1 562.16,354.87C563.16,353.65 564.29,352.41 565.5,351.17C570.79,345.73 575.79,342.95 578.12,341.54C584.73,337.57 593.66,330.92 604.1,319.65C604.29,322.56 604.25,326.5 603.91,331.16C602.72,345.02 598.65,355.92 595.43,361.42C588.88,372.7 579.64,381.46 570.8,388.21C566.46,391.58 562.17,394.41 558.5,396.67C554.88,398.94 551.81,400.62 549.79,401.69C547.91,400.04 545.36,397.67 542.51,394.51C539.73,391.37 536.66,387.44 533.66,382.68C527.83,373.2 522.38,360.26 521.11,344.22L521.12,344.2Z" style="fill:white;fill-rule:nonzero;"/>
                <path d="M574.48,292.15C564.84,318.55 557.81,345.86 553.79,373.57" style="fill:white;fill-rule:nonzero;stroke:white;stroke-width:2.8px;"/>
            </g>
            <g>
                <path d="M512,466.52C511.11,464.17 510.25,461.84 509.61,459.54C508.99,457.24 508.46,454.97 508.01,452.75C507.13,448.31 506.48,444.05 506.22,440.07C506,436.09 506,432.39 506.13,429.05C506.31,425.71 506.67,422.73 507.03,420.18C507.67,423.35 508.44,426.2 509.33,428.78C510.27,431.36 511.3,433.65 512.37,435.7C513.44,437.75 514.55,439.54 515.65,441.11C516.79,442.68 517.95,444.04 519.04,445.21C523.08,449.54 527.2,452.27 531.4,455.36C532.45,456.13 533.51,456.93 534.57,457.77C535.62,458.61 536.7,459.51 537.83,460.48C540.06,462.42 542.32,464.67 544.63,467.45C547.63,471.04 549.58,474.27 550.95,476.48C551.7,472.57 553.37,466.89 556.53,460.78C558.22,457.44 560.26,454.74 561.93,452.63C563.62,450.53 565.07,449.01 566,448.01C568.65,445.18 571.48,441.56 574.77,436.93C576.39,434.62 577.99,432.05 579.67,429.21C581.39,426.37 583.11,423.26 584.8,419.84C585.79,422.57 586.93,426.35 587.8,430.9C588.53,434.31 588.97,437.57 589.2,440.66C589.55,443.75 589.67,446.65 589.63,449.33C589.59,452.01 589.36,454.47 589.09,456.63C588.89,458.79 588.57,460.67 588.2,462.2C587.44,465.36 586.42,468.41 585.21,471.36C584.08,474.3 582.84,477.13 581.42,479.85C580.01,482.57 578.46,485.19 576.84,487.68C575.26,490.17 573.71,492.53 572.07,494.76C568.83,499.22 565.51,503.14 562.59,506.35C559.77,509.54 557.33,512.03 555.7,513.62C553.43,512.57 550.27,511.02 546.66,508.8C543.12,506.57 539.09,503.67 534.88,499.94C532.8,498.07 530.57,496.01 528.54,493.7C526.5,491.39 524.46,488.86 522.47,486.09C521.48,484.7 520.5,483.26 519.53,481.75C518.58,480.24 517.59,478.68 516.76,477.05C515.05,473.78 513.45,470.27 512,466.51L512,466.52Z" style="fill:white;fill-rule:nonzero;"/>
                <path d="M548.76,401.6C547.75,415.62 547.45,429.67 547.94,443.69L548.45,454.2C548.55,455.95 548.58,457.7 548.75,459.45L549.24,464.68L550.21,475.14L551.62,485.55" style="fill:white;fill-rule:nonzero;stroke:white;stroke-width:2.8px;"/>
            </g>
            <g>
                <path d="M537.85,586.55C536.33,584.56 534.91,582.56 533.58,580.56C532.32,578.54 531.17,576.51 530.11,574.51C529.05,572.51 528.07,570.53 527.18,568.59C526.73,567.62 526.31,566.66 525.9,565.71C525.52,564.75 525.17,563.8 524.84,562.86C522.16,555.34 520.57,548.68 519.95,543.54C522.84,549.3 526.29,553.59 529.48,556.91C532.71,560.22 535.72,562.54 538.52,564.14C543.63,567.14 548.36,568.58 553.27,570.34C558.12,572.12 563.43,574.13 569.37,578.17C571.31,579.47 572.96,580.76 574.41,581.93C575.88,583.09 577.1,584.14 578.05,585.01C577.57,581.08 577.57,575.16 578.92,568.38C579.3,566.52 579.7,564.83 580.21,563.26C580.72,561.7 581.24,560.29 581.76,559.04C582.78,556.54 583.74,554.67 584.35,553.45C585.2,551.72 586.08,549.78 586.94,547.61C587.8,545.44 588.78,542.99 589.65,540.32C590.54,537.64 591.38,534.72 592.13,531.54C592.91,528.35 593.78,524.85 594.44,521.1C595.28,522.27 596.24,523.68 597.24,525.32C598.24,526.95 599.27,528.81 600.42,530.84C602.09,533.9 603.44,536.9 604.53,539.79C605.64,542.68 606.66,545.41 607.36,548C608.11,550.58 608.54,553.01 608.96,555.15C609.37,557.29 609.59,559.19 609.67,560.77C610.21,573.82 607.22,586.22 603.42,596.69C602.44,599.31 601.49,601.77 600.53,604.07C599.56,606.37 598.59,608.51 597.65,610.45C595.78,614.33 594.07,617.42 592.94,619.41C590.48,619.02 587.09,618.38 583.03,617.24C581,616.67 578.8,615.98 576.47,615.14C575.3,614.72 574.1,614.26 572.87,613.76C571.66,613.25 570.44,612.69 569.18,612.08C566.67,610.87 564.07,609.47 561.41,607.87C560.08,607.07 558.73,606.21 557.38,605.29C556.03,604.37 554.73,603.37 553.4,602.33C550.74,600.23 548.07,597.89 545.43,595.28C544.09,593.99 542.82,592.6 541.58,591.14C540.33,589.68 539.09,588.16 537.87,586.56L537.85,586.55Z" style="fill:white;fill-rule:nonzero;"/>
                <path d="M554.68,513.86C555.45,517.29 556.19,520.72 557,524.14L559.71,534.32C560.17,536.01 560.59,537.72 561.09,539.4L562.64,544.43C563.7,547.78 564.67,551.15 565.79,554.47C568.14,561.08 570.34,567.73 573.02,574.22C575.49,580.78 578.39,587.16 581.17,593.58" style="fill:white;fill-rule:nonzero;stroke:white;stroke-width:2.8px;"/>
            </g>
            <g>
                <path d="M595.2,694.2C591.31,691.14 587.75,687.97 584.66,684.72C581.61,681.44 578.89,678.17 576.56,674.99C574.29,671.76 572.34,668.66 570.7,665.78C569.03,662.92 567.82,660.19 566.76,657.87C571.12,662.54 575.51,665.75 579.47,668.05C581.45,669.2 583.32,670.13 585.1,670.85C586.9,671.57 588.57,672.1 590.1,672.52C595.79,674.03 600.64,674.21 605.9,674.56C608.52,674.74 611.21,674.98 614.09,675.48C616.98,675.97 620,676.75 623.46,677.88C627.9,679.35 631.32,681.05 633.6,682.25C632.9,680.38 632.17,678.02 631.52,675.28C630.88,672.54 630.31,669.43 630.14,665.93C629.92,662.12 630.09,658.83 630.38,656.17C630.69,653.49 631.15,651.41 631.4,650.07C631.77,648.17 632.1,646.05 632.37,643.7C632.5,642.53 632.61,641.3 632.7,640.01C632.81,638.71 632.91,637.35 632.97,635.93C633.1,633.1 633.11,630.03 632.97,626.73C632.87,623.41 632.69,619.81 632.29,615.98C633.43,616.89 634.75,618 636.18,619.31C637.62,620.62 639.11,622.15 640.77,623.83C650.32,634.04 655.89,644.44 657.81,650.6C661.89,663.15 662.16,676 661.15,687.11C660.69,692.61 659.86,697.69 659.02,701.91C658.21,706.12 657.34,709.52 656.75,711.72C654.26,711.96 650.8,712.2 646.56,712.14C642.36,712.05 637.4,711.64 631.89,710.63C620.99,708.52 607.88,703.87 595.2,694.18L595.2,694.2Z" style="fill:white;fill-rule:nonzero;"/>
                <path d="M592.02,619.91C605.48,644.58 621.1,668.02 638.85,689.69" style="fill:white;fill-rule:nonzero;stroke:white;stroke-width:2.8px;"/>
            </g>
            <g>
                <path d="M678.22,784C668.53,779.91 660.84,774.79 654.69,769.68C651.6,767.14 648.98,764.57 646.65,762.18C644.37,759.76 642.45,757.49 640.85,755.5C651.71,762.31 660.86,763.85 667.2,763.98C673.1,764.08 677.94,762.97 683.11,762.03C688.29,761.05 693.81,760.35 701.05,760.68C705.73,760.9 709.49,761.59 711.99,762.15C710.82,760.53 709.47,758.46 708.11,756C706.76,753.54 705.35,750.69 704.27,747.42C701.88,740.25 701.69,734.58 701.52,731.87C701.06,724.18 699.28,713.25 694.02,698.72C696.65,699.96 700.24,701.71 704.17,704.22C716,711.68 723.56,720.16 726.78,725.15C728.61,727.84 730.18,730.64 731.55,733.52C732.91,736.4 734.16,739.21 735.19,742.13C737.22,747.98 738.76,753.66 739.78,759.15C740.28,761.9 740.73,764.49 741.07,766.96C741.42,769.43 741.67,771.77 741.87,773.92C742.06,776.07 742.19,778.02 742.27,779.73C742.36,781.42 742.42,782.85 742.45,783.99C740.11,784.97 736.87,786.16 732.81,787.26C730.78,787.81 728.53,788.34 726.1,788.81C724.88,789.04 723.62,789.26 722.3,789.46C721,789.64 719.66,789.79 718.27,789.91C712.72,790.4 706.41,790.51 699.7,789.59C698.01,789.37 696.29,789.11 694.54,788.79C692.78,788.48 691.01,788.09 689.24,787.6C685.67,786.65 682,785.48 678.23,784.01L678.22,784Z" style="fill:white;fill-rule:nonzero;"/>
                <path d="M656,712.45C665.52,722.78 675.55,732.63 686.02,741.97C696.47,751.33 707.61,759.87 719.12,767.84" style="fill:white;fill-rule:nonzero;stroke:white;stroke-width:2.8px;"/>
            </g>
            <g>
                <path d="M783.43,846.83C773.49,845.75 764.63,843.21 757.32,840.08C749.96,837.03 744.16,833.39 739.9,830.53C752.38,833.88 761.53,832.72 767.61,830.99C773.28,829.32 777.55,826.87 782.2,824.49C784.54,823.27 786.96,822.07 789.68,820.99C792.4,819.89 795.39,818.97 798.93,818.12C803.49,817.03 807.27,816.72 809.86,816.49C808.27,815.3 806.41,813.66 804.42,811.68C802.43,809.69 800.32,807.33 798.34,804.45C796.16,801.31 794.58,798.47 793.46,796.01C792.34,793.55 791.63,791.57 791.15,790.29C790.47,788.48 789.65,786.52 788.66,784.38C787.69,782.21 786.54,779.89 785.18,777.43C784.5,776.2 783.76,774.94 782.97,773.64C782.2,772.31 781.36,770.95 780.47,769.56C778.69,766.77 776.62,763.91 774.37,760.77C777.2,761.21 781.14,761.8 785.61,763.05C792.32,764.88 798.14,767.31 802.92,769.77C805.29,771.04 807.43,772.27 809.27,773.46C811.11,774.66 812.63,775.83 813.83,776.87C823.76,785.38 830.73,796.11 835.76,806.02C837.01,808.48 838.14,810.9 839.14,813.22C840.15,815.51 841.04,817.67 841.81,819.68C843.36,823.69 844.42,827.07 845.1,829.22C843.12,830.78 840.33,832.78 836.71,834.98C834.9,836.06 832.88,837.22 830.68,838.31C828.47,839.4 826.07,840.47 823.46,841.49C813.07,845.52 799.41,848.5 783.43,846.85L783.43,846.83Z" style="fill:white;fill-rule:nonzero;"/>
                <path d="M741.93,784.88C766.08,799.26 791.72,811.01 818.23,820.03" style="fill:white;fill-rule:nonzero;stroke:white;stroke-width:2.8px;"/>
            </g>
            <g>
                <path d="M901.09,878.9C891.25,880.52 882.11,880.31 874.27,879.26C870.35,878.76 866.76,878.02 863.54,877.21C860.32,876.44 857.49,875.5 855.08,874.66C867.9,874.61 876.38,871.04 881.77,867.75C886.78,864.67 890.25,861.19 894.11,857.63C897.96,854.1 902.2,850.52 908.57,847.14C910.63,846.04 912.55,845.15 914.27,844.44C915.99,843.7 917.49,843.15 918.71,842.73C916.87,841.95 914.64,840.93 912.21,839.5C910.99,838.79 909.72,838 908.42,837.11C907.12,836.21 905.79,835.2 904.46,834.09C898.61,829.21 895.4,824.53 893.79,822.3C892.66,820.73 891.35,819.03 889.82,817.23C888.3,815.41 886.57,813.47 884.59,811.46C880.64,807.42 875.74,802.97 869.63,798.27C871.07,798.07 872.79,797.86 874.72,797.71C876.65,797.57 878.81,797.49 881.16,797.46C888.17,797.49 894.48,798.24 899.78,799.42C902.43,799.97 904.83,800.64 906.93,801.33C909.03,802 910.82,802.71 912.26,803.41C924.14,809.02 933.64,817.68 941.05,825.93C948.43,834.18 953.63,842.06 956.05,845.93C953.02,849.91 947.32,856.76 938.29,863.37C929.28,869.97 916.87,876.29 901.08,878.88L901.09,878.9Z" style="fill:white;fill-rule:nonzero;"/>
                <path d="M844.84,830.21C858.42,833.83 872.15,836.8 885.99,839.12C892.91,840.25 899.85,841.25 906.81,842.07C913.77,842.87 920.75,843.53 927.73,844.01" style="fill:white;fill-rule:nonzero;stroke:white;stroke-width:2.8px;"/>
            </g>
        </g>
    </g>
    <g transform="matrix(1,0,0,1,-455.679,5.70635)">
        <path d="M624.09,196.41C622.3,193.47 620.2,188.99 620.36,183.6C620.76,170.54 634.18,161.57 643.85,154.9C657.42,145.53 676.14,132.03 700.85,112.5C691.12,125.33 684.24,136.54 679.7,144.54C667.83,165.43 665.42,175.83 654.09,184.91C643.96,193.03 632.37,195.56 624.09,196.41Z" style="fill:white;fill-rule:nonzero;"/>
    </g>
    <g transform="matrix(1,0,0,1,-455.679,5.70635)">
        <path d="M1285.54,196.41C1287.33,193.47 1289.43,188.99 1289.27,183.6C1288.87,170.54 1275.45,161.57 1265.78,154.9C1252.21,145.53 1233.49,132.03 1208.78,112.5C1218.51,125.33 1225.39,136.54 1229.93,144.54C1241.8,165.43 1244.21,175.83 1255.54,184.91C1265.67,193.03 1277.26,195.56 1285.54,196.41Z" style="fill:white;fill-rule:nonzero;"/>
    </g>
</svg>
