<?xml version="1.0" encoding="UTF-8"?><svg id="Ebene_35" xmlns="http://www.w3.org/2000/svg" viewBox="0 0 1920 1080"><defs><style>.cls-1{fill:none;stroke:#000;stroke-miterlimit:10;stroke-width:2.8px;}.cls-2,.cls-3{fill:#6dceb2;}.cls-4{fill:#00524c;}.cls-4,.cls-3,.cls-5{fill-rule:evenodd;}.cls-6{font-family:Austere, Austere;font-size:73.8px;}</style></defs><path class="cls-4" d="M1181.91,292.89l-117.81-2.2-10.61-.21,1.35-71.91c.03-1.67,.06-3.34,.09-5.01l.38-19.77c1.58,.59,3.2,1.21,4.77,1.86,5.18,2.06,10.22,4.28,15.21,6.64,5.33,2.57,10.56,5.25,15.69,8.14,5.14,2.87,10.2,5.88,15.1,9.08,1.9,1.24,3.75,2.47,5.62,3.75,5.07,3.44,10.01,7.07,14.8,10.87,2.52,1.94,5,3.95,7.4,6.03,2.79,2.45,5.57,4.9,8.36,7.35,3.13,2.84,6.2,5.81,9.2,8.85l82.54,1.54c2.87,.11,5.74,.21,8.6,.32-2.79-4.13-5.59-8.25-8.38-12.38-.99-1.36-2.46-3.36-4.28-5.73-4.89-6.36-10.01-12.56-15.32-18.57-2.81-3.17-5.66-6.28-8.54-9.33,0,0,0-.01-.01-.01-46.49-47.82-98.37-72-106.05-75.5-1.41-.64-4.12-1.87-7.61-3.35-7.94-3.39-16.08-6.49-24.35-9.3-3.75-1.25-7.57-2.46-11.4-3.6-9.3-2.75-21.27-6.31-35.81-8.63-9.03-1.44-21.23-2.76-35.94-2.53l-.69,35.98-.57,31.96-.08,4.01-.67,35.96-.3,15.76h.02s-.39,20.2-.39,20.2l.93,.02h.02s-.03,.02-.03,.02l-.93,.51-.39,20.77-.28,14.66c-.04,2.04-.07,4.08-.11,6.11l-.55,29.86c-.23,11.58-.45,23.17-.68,34.75,2.04,.12,4.07,.23,6.11,.35,21.75,.98,43.69,1.72,65.81,2.21,2.03,.05,4.06,.09,6.1,.13l23.78,.43c2.03,.04,4.07,.08,6.1,.13l35.96,.67c2.03,.04,4.05,.08,6.08,.12l23.8,.44c2.03,.04,4.07,.08,6.1,.13l13.45,.26,22.52,.4c2.03,.04,4.05,.08,6.08,.11h.02s15.63,.29,15.63,.29c.39,1.33,.81,2.68,1.18,3.99,.73,2.35,1.4,4.71,2.04,7.09h.02c.56,2.06,1.09,4.11,1.57,6.2,.53,2.05,1,4.16,1.45,6.25,.91,4.16,1.73,8.4,2.45,12.63,.29,1.46,.53,2.89,.74,4.39,.9,5.79,1.61,11.66,2.13,17.58,.28,3.29,.52,6.58,.67,9.91,.08,1.39,.14,2.76,.19,4.16,.1,2.57,.18,5.12,.17,7.68,.03,2.5,.03,5-.03,7.5-.78,16.77-2.06,29.44-2.93,35.25-.18,1.23-.5,3.49-1.32,8-.91,5-1.47,8.58-1.7,8.55,0,0-.02,0-.02-.01l-12.85-7.73-35.55-21.46h-.03s-4.8-2.87-4.8-2.87l-.04-.03h.05s-12.79-7.69-12.79-7.69l-.46-.29-17.53-10.54-8.88-5.37-8.91-5.36-13.04-7.88c-1.59-.95-3.17-1.9-4.76-2.86l-17.76-10.71-17.8-10.73-17.78-10.72-3.53-2.11-28.86-.54-3.55-.07-35.96-.67-.67,35.96-.13,7.63,17.74,10.7h.02s17.8,10.75,17.8,10.75l12.99,7.82c1.59,.96,3.19,1.91,4.78,2.87h.02s17.78,10.73,17.78,10.73l17.76,10.71h.02s17.8,10.75,17.8,10.75l3.39,2.06,.26,.16,14.11,8.49,17.8,10.73,17.76,10.71h.03s11.67,7.04,11.67,7.04h.05s.02,.02,.02,.02c2.02,1.22,4.04,2.45,6.06,3.67l17.74,10.7h.02s17.8,10.75,17.8,10.75l7.34,4.44,10.42,6.27h.02s2.15,1.3,2.15,1.3l.04,.02,15.59,9.41h.02s17.75,10.69,17.75,10.69h.02s13.96,8.43,13.96,8.43c1.38-2.56,2.72-5.12,4.02-7.65,2.44-4.8,4.74-9.66,6.93-14.55,.8-1.73,1.55-3.46,2.29-5.2,.76-1.75,1.5-3.52,2.22-5.3,4.07-9.93,7.67-20.07,10.79-30.43,.45-1.44,.88-2.88,1.27-4.27,.58-2,1.12-3.95,1.65-5.96h.03c2.23-8.41,4.18-16.94,5.79-25.6,.33-1.77,.66-3.6,.96-5.38h-.02s0-.03,.01-.03c.86-5,1.58-9.95,2.19-15.03l.02-.04c.65-5.11,1.16-10.22,1.61-15.39,.22-2.95,.42-5.89,.55-8.87,.21-3.96,.35-7.94,.42-11.93,.05-2.14,.07-4.22,.06-6.31-.02-.01,0-.03,0-.03v-.02c.03-2.97-.01-5.86-.09-8.81-.11-5.05-.34-10.09-.69-15.1h-.02c-.37-5.36-.84-10.64-1.46-15.89v-.03c-.18-1.69-.38-3.33-.62-5-1.09-8.39-2.5-16.67-4.18-24.87v-.02c-.54-2.55-1.11-5.07-1.67-7.62-.28-1.2-.57-2.39-.87-3.6-2.62-10.79-5.78-21.41-9.4-31.8-.5-1.48-1.04-2.93-1.58-4.38-.39-1.16-.85-2.34-1.27-3.49-2.85-7.57-5.95-14.98-9.31-22.25-.52-1.13-1.06-2.27-1.59-3.39-1.15-2.39-2.31-4.78-3.49-7.13-27.37-.52-54.74-1.04-82.11-1.55Z"/><path class="cls-5" d="M1226.99,632.21l-17.82-10.72-3.66-2.22-3.69-2.21-10.44-6.29-10.61-6.41-7.19-4.33-17.75-10.7-15.61-9.39c-.75-.45-1.5-.89-2.25-1.34l-17.73-10.72-17.8-10.73-17.79-10.71-6.06-3.63-11.75-7.07-17.75-10.7-17.82-10.72-14.31-8.63c-1.16-.7-2.31-1.41-3.47-2.11l-17.81-10.7-17.77-10.72-17.8-10.73h-.03s-.12,.06-.12,.06l-18.01,10-18.2,10.05-18.16,10.03c-1.19,.65-2.37,1.3-3.56,1.96l-14.63,8.09-18.18,10.04-18.16,10.06h-.03s-11.92,6.61-11.92,6.61h-.05s-6.19,3.44-6.19,3.44l-18.18,10.04h-.05s-18.11,10.01-18.11,10.01c0,.01-.02,.03-.03,.04l-18.14,10.05c-.74,.41-1.48,.81-2.21,1.22h-.05s-15.91,8.82-15.91,8.82l-.04,.02-18.13,10.01h-.03s-.1,.05-.1,.05l-9.93,5.52h-.02s-8.09,4.47-8.09,4.47l-.06,.03-10.6,5.87-.06,.03-7.46,4.13h-.05s-18.13,10.02-18.13,10.02h-.02s-16.89,9.35-16.89,9.35v.02c.51,.78,1.01,1.58,1.54,2.37v.02c2.06,3.16,4.18,6.27,6.34,9.39,2.7,3.87,5.5,7.69,8.38,11.44l.02,.04h.02c1.55,2.07,3.14,4.1,4.8,6.15,5.16,6.5,10.58,12.8,16.22,18.89h-.02c2.74,2.94,5.51,5.83,8.3,8.67,0,.01,0,.02,0,.03,1.98,1.92,3.92,3.87,5.92,5.77h.03c7.17,6.9,14.59,13.42,22.35,19.67h-.02c1.08,.87,2.16,1.72,3.24,2.58,0,0,.03,0,.02,.04,3.22,2.49,6.47,4.97,9.79,7.41,.01,0,.02,0,.03,0,6.29,4.56,12.76,8.96,19.39,13.12h-.02c5.28,3.35,10.65,6.53,16.14,9.59,0,0,.02-.01,.03,0,4.33,2.39,8.68,4.71,13.12,6.92,0,0,.02-.01,.04,.03,2.66,1.35,5.39,2.63,8.09,3.9,4.74,2.21,9.55,4.32,14.42,6.32,9.59,3.92,19.42,7.46,29.43,10.54h-.02c2.09,.65,4.2,1.25,6.31,1.87h.02c11.71,3.34,23.64,6.07,35.83,8.17,3.62,.64,7.27,1.21,10.95,1.72,5.56,.77,11.07,1.4,16.67,1.9v-.02s-9.61-5.76-9.61-5.76h-.02s-.01,0-.01,0h-.02s-17.73-10.7-17.73-10.7l-17.79-10.77h-.03s-9.83-5.94-9.83-5.94h-.02s-.01,0-.01,0l-7.88-4.75v-.02s-17.81-10.73-17.81-10.73l-17.8-10.68-17.77-10.72v-.02s-.34-.2-.34-.2h-.03s-5.9-3.59-5.9-3.59l-.85-.5-10.66-6.4-17.75-10.7-.04-.03v-.02s-17.77-10.67-17.77-10.67l-8.62-5.23v-.02c-3.08-1.84-6.14-3.68-9.2-5.53h.02s18.16-10.04,18.16-10.04v.02s.05-.02,.05-.02v-.02s18.11-10.03,18.11-10.03c12.13-6.69,24.27-13.39,36.4-20.08h.02s9.43,5.7,9.43,5.7l8.33,5.01v.02s.85,.53,.85,.53h.03s.02,0,.02,0h.03s16.85,10.17,16.85,10.17v.02s17.79,10.69,17.79,10.69v.02s17.8,10.71,17.8,10.71v.02s9.14,5.51,9.14,5.51c.03,.01,.05,.03,.08,.04l8.57,5.14v.02s17.77,10.7,17.77,10.7h.02s17.79,10.75,17.79,10.75l15.84,9.53s.02-.01,.05,0c.64,.39,1.27,.78,1.91,1.17v.02c5.93,3.57,11.85,7.14,17.77,10.7l17.79,10.71v.03s17.8,10.7,17.8,10.7l7.9,4.77h.03s9.83,5.94,9.83,5.94h.02s17.8,10.72,17.8,10.72l.02,.04,4.99,2.99c10.58-2.93,20.97-6.33,31.09-10.22,4.37-1.68,8.66-3.39,12.92-5.23,2.04-.9,4.07-1.79,6.11-2.69l.04-.02c5.83-2.64,11.57-5.44,17.23-8.45v.02c4.92-2.55,9.78-5.24,14.54-8.04v-.02s-14.22-8.55-14.22-8.55v.03c-11.87-7.16-23.73-14.32-35.58-21.48l-17.8-10.73-3.38-2.05h-.02s-14.38-8.66-14.38-8.66l-8.61-5.21-9.19-5.53-17.75-10.7-17.82-10.72-16.86-10.18-.93-.02v-.03s.01-.14,.01-.14v-.35s-17.81-10.73-17.81-10.73l-17.75-10.7h-.02s-3.39-2.06-3.39-2.06l-.24-.14-14.15-8.5v-.02s-7.34-4.43-7.34-4.43l-10.45-6.31-17.8-10.73,18.2-10.05c5.31-2.93,10.61-5.86,15.92-8.79l2.23-1.23,18.2-10.05c6.05-3.35,12.11-6.71,18.16-10.06l17.8,10.73,17.79,10.71,2.16,1.33h.03s.01,.03,.01,.03h.03s.03,.02,.03,.02l15.53,9.35v.02s17.79,10.69,17.79,10.69v.02s17.8,10.71,17.8,10.71l10.39,6.26,.04,.03h-.02s.02,.05,.02,.05l.04-.02h.03c8.35,5.04,16.71,10.07,25.06,15.11l17.75,10.74v.02s17.81,10.73,17.81,10.73l.88,.51,.04,.03h.05c3.67,2.2,7.34,4.41,11,6.62l5.79,3.54h.02s17.8,10.72,17.8,10.72l17.79,10.71,9.14,5.53h.03c4.39,2.26,8.79,4.51,13.18,6.76,2.05-2.14,4.11-4.27,6.16-6.41,2.37-2.43,10.88-11.11,18.21-19.74,2.61-3.07,5.19-6.18,7.69-9.35,.7-.89,1.14-1.49,4.43-5.82,1.32-1.73,3.3-4.34,4.57-6.01h.02c1.79-2.51,3.57-4.98,5.28-7.52-4.59-2.78-9.18-5.56-13.77-8.34Zm-467.76,.1h-.03s.02-.02,.02-.02v.02Zm214.22,88.43h.02s0,.02,0,.02v-.02Zm3.32-176.29v-.02s0-.01,0-.01v.03Z"/><path class="cls-3" d="M876.87,116.03c-4.42,1.07-8.71,2.22-12.88,3.45h-.03c-7.87,2.26-15.64,4.8-23.28,7.62h-.03c-1.29,.49-2.57,.95-3.86,1.45-8.13,3.72-16.26,7.43-24.39,11.15-10.98,5.35-19.84,10.3-26.32,14.11-6.24,3.67-11.44,6.98-15.18,9.36-6.99,4.44-12.83,8.34-17.19,11.32-.52,.38-1.04,.77-1.57,1.17-.52,.4-1.03,.79-1.54,1.2-.08,.05-.14,.08-.22,.15-6.5,4.99-12.77,10.19-18.86,15.63l-.04,.02c-3.32,2.97-6.59,5.99-9.8,9.08-3.51,3.37-6.96,6.84-10.3,10.36-5.12,5.34-10.04,10.84-14.75,16.52-.63,.72-1.24,1.47-1.83,2.2-4.5,5.43-8.8,10.99-12.93,16.7-2.37,3.28-4.71,6.62-6.97,10-.56,.85-1.13,1.7-1.69,2.55-4.95,7.46-9.58,15.14-13.9,23.01-.52,.91-1,1.85-1.53,2.76-.45,.85-.9,1.7-1.34,2.55-5.09,9.64-9.76,19.56-13.92,29.74-.09,.18-.16,.39-.26,.6-.35,.84-.67,1.67-1.02,2.51-4.3,10.82-8.07,21.92-11.28,33.25-.18,.56-.32,1.12-.48,1.67-1.11,3.96-2.12,7.97-3.07,11.98-1.74,7.3-3.25,14.72-4.53,22.18-.16,.98-.31,1.98-.51,2.98-.69,4.37-1.29,8.75-1.84,13.18-.26,2.3-.52,4.63-.76,6.98-.42,4.23-.76,8.49-1.02,12.76-.16,2.2-.26,4.41-.37,6.65-.15,2.81-.21,5.68-.26,8.51-.09,4.72-.1,9.39,.03,14.07,.03,2.25,.11,4.5,.18,6.73,.2,4.42,.46,8.79,.84,13.14h-.02s.07,1.02,.07,1.02c.51,6.2,1.2,12.37,2.04,18.49,.16,1.12,.31,2.26,.48,3.41,1.16,7.81,2.61,15.56,4.27,23.2v.02c.77,3.52,1.6,6.98,2.48,10.48,.2,.81,.43,1.6,.63,2.41,2.9,11.11,6.35,21.99,10.31,32.62l1.35,3.57c.31,.8,.6,1.58,.93,2.37v.02c3.4,8.62,7.13,17.09,11.21,25.39,.3,.59,.62,1.22,.92,1.81l17.19-9.53h.03s18.17-10.03,18.17-10.03h.03s15.91-8.81,15.91-8.81l2.25-1.25h.03s7.66-4.25,7.66-4.25c-4.8-9.87-9.01-20.07-12.59-30.55-.36-.99-.71-2.01-1-3.04-1.06-3.14-2.04-6.32-2.96-9.51v-.02c-2.21-7.74-4.12-15.59-5.62-23.59-.24-.97-.43-1.95-.56-2.93-.46-2.81-.92-5.63-1.37-8.44-.04-.03-.02-.04-.03-.06-.65-4.15-1.16-8.29-1.58-12.48-.42-4.03-.75-8.09-.97-12.15-.11-1.86-.19-3.76-.25-5.64-.19-5.02-.25-10.07-.15-15.16,.07-3.25,.18-6.47,.36-9.65,.09-1.83,.21-3.68,.35-5.51,.27-3.96,.64-7.83,1.11-11.71,.72-6.23,1.65-12.41,2.83-18.46v-.07s0-.06,0-.08c.21-1.09,.41-2.14,.63-3.21l17.24,10.39,17.8,10.73,17.77,10.72,4.76,2.85,13.04,7.88,17.79,10.71,17.8,10.73,12.99,7.83c1.59,.96,3.19,1.93,4.78,2.89l17.8,10.73,17.77,10.72,36.37-20.1c1.63-.9,3.27-1.8,4.9-2.71l31.47-17.39-17.79-10.71-13.06-7.87-4.74-2.86-17.77-10.72-17.8-10.73-17.77-10.72-3.54-2.12-14.26-8.61-17.79-10.71-17.8-10.73-11.77-7.1,23.81,.45c2.03,.04,4.07,.07,6.1,.11l35.97,.68c2.02,.04,4.03,.07,6.05,.11l23.79,.46,6.13,.1,35.95,.7c2.03,.04,4.07,.07,6.1,.11l23.77,.44c2.01-.03,4.03-.06,6.04-.09,.04-1.1,.08-2.21,.12-3.31,.2-10.82,.41-21.63,.61-32.45l.57-29.84c.03-2.04,.06-4.08,.1-6.12l.68-35.4-.96-.57h.97s.66-35.96,.66-35.96l.68-35.97c.03-1.42,.05-2.84,.08-4.25l.59-31.71,.68-35.97c-21.52-.61-45.95,1.12-72.08,7.42Zm-1.38,73.35l-1.84,97.71c-3.54-.07-7.09-.13-10.63-.2l-14.75-.27c-3.53-.07-7.05-.13-10.58-.2l-96.29-1.82c5.01-6.71,10.38-13.16,16.01-19.37,2.88-3.18,5.83-6.3,8.86-9.32l.03-.04c5.6-5.15,11.2-10.31,16.8-15.46,.38-.34,.8-.66,1.19-.98,5.97-5.02,12.17-9.77,18.55-14.24h.02c4.29-3.03,8.65-5.9,13.11-8.66,1.32-.8,2.64-1.6,3.96-2.4,6.26-3.76,12.71-7.24,19.3-10.45,0,0,.02-.01,0-.03,2.35-1.15,4.71-2.26,7.09-3.34,0,0,3.65-1.66,7.19-3.15,8.91-3.75,20.1-7.5,21.98-8.13,0,.12,0,.23,0,.35Z"/><text class="cls-6" transform="translate(559.12 972.42)"><tspan class="cls-2" x="0" y="0">Res</tspan><tspan x="143.1" y="0" xml:space="preserve"> Publica Esports</tspan></text><g><g><g><path d="M1347.95,229.65c-1.01-4.87-2.29-9.48-3.81-13.73-1.59-4.21-3.35-8.1-5.16-11.63-1.9-3.48-3.83-6.62-5.69-9.38-1.87-2.75-3.75-5.09-5.37-7.07,1.1,3.03,1.95,5.84,2.51,8.51,.55,2.68,.87,5.16,1.04,7.45,.35,4.56-.08,8.44-.7,11.55-1.16,5.78-3.14,10.21-5.19,15.09-1,2.43-1.98,4.95-2.82,7.75-.42,1.4-.8,2.87-1.13,4.43-.32,1.56-.61,3.22-.89,5.02-.68,4.64-.73,8.47-.65,11.04-1.38-1.45-3.14-3.17-5.29-4.98-1.07-.9-2.25-1.83-3.52-2.75-1.29-.91-2.72-1.79-4.22-2.66-3.31-1.89-6.33-3.2-8.84-4.12-2.51-.93-4.59-1.42-5.91-1.79-1.87-.51-3.92-1.15-6.13-1.94-2.21-.8-4.59-1.77-7.2-2.89-2.59-1.13-5.34-2.47-8.23-4.04-2.96-1.53-6.05-3.3-9.3-5.33,.6,2.85,1.63,6.67,3.24,11.04,1.17,3.3,2.56,6.3,3.95,9.1,1.36,2.81,2.82,5.35,4.3,7.61,2.87,4.57,5.72,8.08,8.05,10.28,9.26,9.21,20.73,15.1,30.99,19.24,5.11,2.06,9.99,3.62,14.17,4.78,2.1,.57,3.97,1.07,5.6,1.48,1.64,.41,3.04,.72,4.15,.96,1.34-2.1,3.25-5.12,5.02-8.89,1.81-3.78,3.69-8.39,5.28-13.78,3.11-10.73,4.73-24.56,1.75-40.34Z"/><path class="cls-1" d="M1282.68,193.78c8.15,11.45,15.73,23.28,22.69,35.46l2.59,4.58c.87,1.52,1.73,3.05,2.53,4.61l4.89,9.31,4.6,9.45c1.57,3.13,2.97,6.34,4.38,9.54"/></g><g><path d="M1390.24,344.38c.34-4.98,.31-9.78,.02-14.31-.11-2.27-.42-4.45-.77-6.54-.34-2.1-.73-4.13-1.16-6.07-.87-3.88-1.79-7.46-2.9-10.6-1.14-3.14-2.29-5.89-3.35-8.24,.27,3.21,.32,6.16,.19,8.87-.04,1.35-.19,2.66-.38,3.91-.18,1.25-.39,2.44-.63,3.57-.96,4.52-2.35,8.13-3.74,10.96-1.31,2.63-2.67,4.86-4.26,6.99-1.56,2.12-3.19,4.11-4.8,6.19-3.24,4.15-6.46,8.67-9.21,15.27-1.92,4.29-3.07,7.98-3.71,10.47-1.83-3.54-4.7-8.59-9.71-13.52-5.38-5.42-10.2-8.25-12.53-9.66-3.36-1.97-7.31-4.6-11.64-8.18-1.08-.89-2.18-1.85-3.31-2.86-1.12-1.02-2.29-2.09-3.53-3.21-2.45-2.26-4.98-4.78-7.56-7.6-.17,2.9-.24,6.87,.24,11.48,.28,3.48,.67,6.77,1.29,9.82,.3,1.52,.65,2.99,1.02,4.39,.39,1.4,.77,2.75,1.14,4.04,1.46,5.16,3.31,9.28,4.95,12.01,.88,1.4,1.73,2.77,2.57,4.12,.87,1.34,1.78,2.63,2.74,3.89,1.91,2.51,3.98,4.87,6.14,7.09,1.06,1.11,2.23,2.17,3.27,3.22,1.06,1.05,2.14,2.06,3.23,3.04,2.18,1.96,4.4,3.77,6.6,5.46,2.2,1.68,4.38,3.23,6.48,4.64,2.09,1.41,4.13,2.67,5.9,3.81,3.6,2.27,6.65,3.96,8.65,5.03,1.89-1.65,4.46-4.03,7.34-7.18,2.85-3.15,5.79-7.06,8.76-11.81,1.47-2.38,2.93-4.96,4.32-7.76,.7-1.4,1.38-2.85,2.03-4.36,.61-1.5,1.17-3.04,1.72-4.65,1.08-3.2,2.05-6.62,2.85-10.24,.78-3.62,1.51-7.47,1.71-11.45Z"/><path class="cls-1" d="M1336.89,292.3c9.61,26.4,16.64,53.71,20.69,81.41"/></g><g><path d="M1399.16,466.86c3.62-9.32,5.32-18.36,5.91-26.33,.58-7.98,.05-14.89-.68-20.09-1.26,6.45-3.24,11.57-5.41,15.66-2.17,4.09-4.56,7.15-6.72,9.48-4.04,4.3-8.16,6.99-12.44,10.04-2.14,1.52-4.29,3.14-6.48,5.07-2.22,1.92-4.48,4.16-6.77,6.93-3.04,3.57-5.08,6.79-6.43,8.99-.75-3.92-2.24-9.59-5.48-15.73-3.56-6.73-7.49-10.83-9.34-12.85-1.29-1.42-2.68-3.05-4.16-4.9-1.46-1.85-2.99-3.92-4.58-6.24-3.16-4.63-6.51-10.26-9.96-16.92-.93,2.67-2.11,6.36-3.04,10.85-2.81,13.42-2.01,25.12-.55,31.32,3.06,12.75,9.52,23.86,16.03,32.83,3.32,4.48,6.53,8.38,9.45,11.58,2.92,3.2,5.37,5.66,7,7.25,2.28-1.07,5.39-2.64,8.94-4.88,3.56-2.24,7.67-5.13,11.8-8.87,8.33-7.43,17.13-18.23,22.92-33.18Z"/><path class="cls-1" d="M1362.54,401.76c.43,7.01,1.05,14.01,1.09,21.04,.12,7.02,.01,14.04-.28,21.04-.3,7.01-.73,14-1.41,20.98-.28,3.49-.73,6.97-1.08,10.45-.46,3.47-.84,6.95-1.37,10.41"/></g><g><path d="M1374.43,586.29c2.97-4.03,5.38-8.14,7.51-12.13,2.03-4.02,3.67-7.96,5.04-11.68,1.27-3.75,2.26-7.29,3.03-10.52,.74-3.24,1.19-6.18,1.54-8.72-1.48,2.85-2.98,5.37-4.55,7.59-1.59,2.21-3.2,4.13-4.77,5.8-3.12,3.35-6.25,5.66-8.95,7.32-5,3.08-9.66,4.61-14.61,6.43-4.95,1.82-9.95,4.01-15.93,8.12-3.85,2.66-6.62,5.25-8.54,7.01,.19-1.97,.24-4.44,.08-7.26-.17-2.82-.49-5.96-1.26-9.35-1.76-7.45-4.37-12.39-5.68-14.85-.89-1.72-1.82-3.66-2.74-5.83-.91-2.17-1.82-4.57-2.77-7.26-.93-2.68-1.8-5.6-2.62-8.8-.88-3.22-1.67-6.7-2.37-10.48-1.68,2.38-3.82,5.74-5.92,9.91-1.64,3.1-2.9,6.17-4.01,9.09-1.13,2.91-2,5.71-2.66,8.33-.72,2.6-1.23,5.02-1.56,7.19-.16,1.09-.28,2.11-.36,3.06-.1,.95-.17,1.81-.2,2.6-.3,13.1,2.9,25.39,6.95,35.8,3.85,10.28,8.61,18.58,10.84,22.48,5.01-.81,13.57-2.8,23.68-7.76,2.48-1.26,5.05-2.71,7.67-4.38,2.62-1.67,5.32-3.54,7.91-5.7,2.62-2.15,5.25-4.54,7.85-7.19,2.51-2.68,5-5.62,7.4-8.85Z"/><path class="cls-1" d="M1356.52,514.01c-5.79,27.5-14.24,54.39-25.28,80.12"/></g><g><path d="M1318.36,695.23c3.91-3.11,7.44-6.37,10.59-9.64,3.06-3.33,5.72-6.7,8.06-9.93,.58-.81,1.15-1.61,1.68-2.41,.52-.81,1.01-1.6,1.49-2.39,.95-1.57,1.83-3.1,2.63-4.57,1.59-2.94,2.96-5.6,3.92-8-2.12,2.41-4.4,4.37-6.5,6.1-2.13,1.72-4.18,3.15-6.14,4.35-3.94,2.38-7.63,3.73-10.66,4.62-2.83,.81-5.47,1.26-8.05,1.57-2.57,.31-5.17,.43-7.78,.64-2.62,.2-5.31,.47-8.19,.99-2.89,.5-5.88,1.33-9.36,2.45-4.45,1.48-7.9,3.15-10.15,4.37,.68-1.88,1.43-4.23,2.08-6.96,.65-2.73,1.21-5.84,1.36-9.34,.37-7.63-.76-13.08-1.37-15.81-.79-3.8-1.46-8.46-1.72-14.04-.19-2.83-.27-5.89-.21-9.18,.03-1.65,.12-3.34,.2-5.12,.06-1.79,.16-3.64,.31-5.55-1.11,.92-2.4,2.04-3.78,3.37-1.4,1.32-2.98,2.79-4.55,4.5-4.64,5.15-8.44,10.16-11.07,14.85-2.82,4.56-4.6,8.69-5.52,11.73-1.04,3.08-1.8,6.19-2.34,9.32-.27,1.56-.48,3.14-.66,4.69-.21,1.53-.37,3.07-.48,4.59-.47,6.1-.19,12.17,.18,17.6,.86,10.96,3.15,20.3,4.19,24.64,5.08,.65,13.78,1.08,24.88-.88,11.05-1.97,24.12-6.75,36.95-16.54Z"/><path class="cls-1" d="M1320.85,620.65c-6.39,12.51-13.57,24.61-21.29,36.31-3.78,5.91-7.94,11.56-11.99,17.27-4.29,5.54-8.42,11.2-12.97,16.53"/></g><g><path d="M1233.98,784.29c9.26-3.79,17.23-8.53,23.39-13.6,3.1-2.51,5.93-4.91,8.26-7.31,2.32-2.41,4.3-4.67,5.95-6.65-2.77,1.66-5.41,3.01-7.9,4.1-.62,.27-1.24,.53-1.84,.77-.62,.22-1.23,.43-1.83,.63-1.2,.39-2.36,.73-3.49,1.01-4.49,1.14-8.34,1.49-11.5,1.49-1.47,0-2.85-.06-4.21-.2-1.37-.15-2.69-.35-3.99-.58-2.59-.46-5.08-1.04-7.65-1.57-2.57-.53-5.22-1.02-8.11-1.32-1.45-.15-2.95-.24-4.55-.29-1.62-.07-3.33-.08-5.14-.01-4.68,.18-8.45,.82-10.96,1.36,1.18-1.62,2.55-3.67,3.94-6.11,.69-1.22,1.39-2.54,2.06-3.96,.67-1.42,1.33-2.92,1.88-4.59,2.48-7.25,2.86-12.85,3.12-15.56,.35-3.81,.92-8.58,2.23-14.01,1.37-5.38,3.1-11.83,5.88-18.91-2.67,1.12-6.26,2.79-10.17,5.24-2.98,1.78-5.76,3.57-8.2,5.47-2.46,1.88-4.61,3.84-6.62,5.6-1.98,1.8-3.68,3.57-5.1,5.23-1.42,1.66-2.55,3.22-3.46,4.48-3.72,5.3-6.32,11.23-8.55,16.88-2.16,5.73-3.6,11.62-4.76,16.96-1.12,5.39-1.79,10.49-2.2,14.8-.46,4.24-.64,7.73-.72,10,2.31,.97,5.57,2.24,9.65,3.42,4.04,1.11,8.9,2.15,14.49,2.75,11.14,1.2,25.04,.31,40.12-5.51Z"/><path class="cls-1" d="M1257.27,713.37c-19.42,20.3-40.8,38.71-64.04,54.34"/></g><g><path d="M1128.41,846.14c4.94-.54,9.63-1.4,14.01-2.49,4.34-1.19,8.37-2.59,12.05-4.06,3.68-1.47,6.94-3.2,9.86-4.78,2.91-1.62,5.47-3.13,7.56-4.64-3.07,.89-6.03,1.32-8.73,1.65-2.71,.31-5.2,.41-7.49,.36-2.28-.02-4.39-.28-6.3-.61-1.91-.33-3.62-.75-5.14-1.2-5.63-1.68-9.86-4.1-14.53-6.59-2.32-1.23-4.74-2.44-7.44-3.53-2.71-1.11-5.69-2.03-9.22-2.91-4.55-1.1-8.36-1.5-10.92-1.66,1.57-1.24,3.45-2.84,5.45-4.81,2-1.98,4.12-4.32,6.11-7.2,4.39-6.25,6.33-11.5,7.29-14.13,1.36-3.64,3.32-7.91,6.09-12.81,1.37-2.49,2.94-5.12,4.78-7.87,.91-1.38,1.9-2.76,2.93-4.23,1.02-1.48,2.1-2.99,3.26-4.53-1.43,.18-3.13,.44-5.01,.82-1.89,.37-4.03,.77-6.28,1.37-6.71,1.86-12.64,4.13-17.41,6.67-4.84,2.4-8.6,4.96-11.02,7.05-5.07,4.15-9.26,9.08-12.93,14.01-1.83,2.48-3.46,5.1-5,7.6-1.54,2.51-2.92,5.04-4.18,7.52-2.5,5-4.52,9.64-6.05,13.67-1.54,4.02-2.61,7.38-3.27,9.57,1.98,1.53,4.78,3.54,8.4,5.72,3.62,2.18,8.05,4.53,13.24,6.51,2.6,1.01,5.39,1.96,8.38,2.81,2.98,.83,6.13,1.48,9.48,2.02,6.71,1.13,14.06,1.35,22.05,.67Z"/><path class="cls-1" d="M1170.25,784.53l-4.56,2.63c-1.52,.88-3.04,1.76-4.6,2.57l-9.3,4.94c-3.11,1.63-6.3,3.11-9.44,4.67-1.58,.76-3.15,1.55-4.73,2.3l-4.8,2.15-4.8,2.15-2.4,1.07-2.43,1-9.72,4-9.83,3.71c-1.63,.64-3.29,1.21-4.94,1.77l-4.97,1.71"/></g><g><path d="M1011.33,878.45c9.83,1.48,18.94,1.26,26.72,.14,1.95-.27,3.82-.59,5.6-.93,1.78-.35,3.47-.77,5.06-1.18,3.19-.85,6.02-1.67,8.41-2.57-3.18,.04-6.12-.25-8.79-.61-2.68-.38-5.09-.88-7.29-1.55-4.4-1.31-7.85-2.95-10.56-4.58-5.03-3.07-8.52-6.5-12.41-10.01-3.89-3.55-8.15-7.01-14.56-10.36-4.13-2.12-7.74-3.5-10.18-4.3,1.83-.81,4.05-1.85,6.47-3.29,2.42-1.46,5.05-3.23,7.7-5.49,2.9-2.49,5.15-4.89,6.87-6.95,1.71-2.1,2.91-3.84,3.7-4.96,1.12-1.58,2.42-3.27,3.93-5.1,1.51-1.84,3.23-3.8,5.2-5.82,1.97-2,4.17-4.18,6.66-6.4,1.24-1.11,2.55-2.23,3.94-3.37,1.38-1.17,2.83-2.36,4.35-3.55-1.45-.19-3.17-.37-5.11-.48-1.95-.15-4.13-.25-6.48-.23-14.07,.12-25.41,3.45-31.18,6.24-11.86,5.75-21.22,14.5-28.51,22.82-7.25,8.31-12.39,16.18-14.84,20.05,3.01,4,8.76,10.85,17.89,17.37,9.1,6.51,21.62,12.7,37.4,15.13Z"/><path class="cls-1" d="M1067.13,829.41c-27.13,7.33-54.88,12.19-82.79,14.43"/></g></g><g><g><path d="M563.31,229.56c1.87-9.8,5.21-18.34,8.87-25.35,3.67-7.03,7.68-12.54,10.95-16.49-4.4,12.09-3.96,21.29-2.72,27.5,1.14,5.75,3.27,10.24,5.25,15.07,.99,2.41,2,4.94,2.84,7.73,.83,2.79,1.56,5.89,2.07,9.46,.62,4.6,.74,8.47,.67,11.03,1.37-1.46,3.1-3.2,5.25-5.01,2.19-1.79,4.72-3.69,7.74-5.43,6.58-3.83,12.11-5.22,14.73-5.97,7.46-2.07,17.81-6.2,30.85-14.34-.63,2.83-1.6,6.68-3.21,11.06-4.78,13.1-11.66,22.61-16.21,27.11-9.34,9.22-20.71,15.19-31,19.33-5.17,2.05-10,3.63-14.14,4.81-4.16,1.17-7.56,1.96-9.78,2.44-1.37-2.11-3.17-5.09-5-8.88-.92-1.9-1.86-4-2.78-6.3-.91-2.3-1.74-4.79-2.53-7.47-3.12-10.72-4.82-24.55-1.84-40.29Z"/><path class="cls-1" d="M628.41,193.45c-16.23,22.94-30.08,47.5-41.46,73.09"/></g><g><path d="M521.12,344.2c-.34-4.98-.39-9.8,.02-14.29,.18-2.25,.43-4.44,.73-6.55,.34-2.1,.73-4.12,1.15-6.07,.82-3.9,1.89-7.42,2.97-10.57,.54-1.57,1.08-3.06,1.63-4.44,.56-1.37,1.12-2.64,1.65-3.81-.14,1.6-.22,3.14-.25,4.61-.01,1.48,.04,2.91,.12,4.27,.17,2.72,.49,5.2,.94,7.45,.96,4.52,2.35,8.13,3.75,10.96,2.65,5.27,5.87,9.04,9.04,13.18,3.24,4.15,6.44,8.67,9.29,15.29,1.9,4.29,2.93,7.96,3.59,10.45,.89-1.78,2.17-3.9,3.75-6.22,.8-1.16,1.68-2.36,2.66-3.59,1-1.22,2.13-2.46,3.34-3.7,5.29-5.44,10.29-8.22,12.62-9.63,6.61-3.97,15.54-10.62,25.98-21.89,.19,2.91,.15,6.85-.19,11.51-1.19,13.86-5.26,24.76-8.48,30.26-6.55,11.28-15.79,20.04-24.63,26.79-4.34,3.37-8.63,6.2-12.3,8.46-3.62,2.27-6.69,3.95-8.71,5.02-1.88-1.65-4.43-4.02-7.28-7.18-2.78-3.14-5.85-7.07-8.85-11.83-5.83-9.48-11.28-22.42-12.55-38.46Z"/><path class="cls-1" d="M574.48,292.15c-9.64,26.4-16.67,53.71-20.69,81.42"/></g><g><path d="M512,466.52c-.89-2.35-1.75-4.68-2.39-6.98-.62-2.3-1.15-4.57-1.6-6.79-.88-4.44-1.53-8.7-1.79-12.68-.22-3.98-.22-7.68-.09-11.02,.18-3.34,.54-6.32,.9-8.87,.64,3.17,1.41,6.02,2.3,8.6,.94,2.58,1.97,4.87,3.04,6.92s2.18,3.84,3.28,5.41c1.14,1.57,2.3,2.93,3.39,4.1,4.04,4.33,8.16,7.06,12.36,10.15,1.05,.77,2.11,1.57,3.17,2.41,1.05,.84,2.13,1.74,3.26,2.71,2.23,1.94,4.49,4.19,6.8,6.97,3,3.59,4.95,6.82,6.32,9.03,.75-3.91,2.42-9.59,5.58-15.7,1.69-3.34,3.73-6.04,5.4-8.15,1.69-2.1,3.14-3.62,4.07-4.62,2.65-2.83,5.48-6.45,8.77-11.08,1.62-2.31,3.22-4.88,4.9-7.72,1.72-2.84,3.44-5.95,5.13-9.37,.99,2.73,2.13,6.51,3,11.06,.73,3.41,1.17,6.67,1.4,9.76,.35,3.09,.47,5.99,.43,8.67-.04,2.68-.27,5.14-.54,7.3-.2,2.16-.52,4.04-.89,5.57-.76,3.16-1.78,6.21-2.99,9.16-1.13,2.94-2.37,5.77-3.79,8.49-1.41,2.72-2.96,5.34-4.58,7.83-1.58,2.49-3.13,4.85-4.77,7.08-3.24,4.46-6.56,8.38-9.48,11.59-2.82,3.19-5.26,5.68-6.89,7.27-2.27-1.05-5.43-2.6-9.04-4.82-3.54-2.23-7.57-5.13-11.78-8.86-2.08-1.87-4.31-3.93-6.34-6.24-2.04-2.31-4.08-4.84-6.07-7.61-.99-1.39-1.97-2.83-2.94-4.34-.95-1.51-1.94-3.07-2.77-4.7-1.71-3.27-3.31-6.78-4.76-10.54Z"/><path class="cls-1" d="M548.76,401.6c-1.01,14.02-1.31,28.07-.82,42.09l.51,10.51c.1,1.75,.13,3.5,.3,5.25l.49,5.23,.97,10.46,1.41,10.41"/></g><g><path d="M537.85,586.55c-1.52-1.99-2.94-3.99-4.27-5.99-1.26-2.02-2.41-4.05-3.47-6.05-1.06-2-2.04-3.98-2.93-5.92-.45-.97-.87-1.93-1.28-2.88-.38-.96-.73-1.91-1.06-2.85-2.68-7.52-4.27-14.18-4.89-19.32,2.89,5.76,6.34,10.05,9.53,13.37,3.23,3.31,6.24,5.63,9.04,7.23,5.11,3,9.84,4.44,14.75,6.2,4.85,1.78,10.16,3.79,16.1,7.83,1.94,1.3,3.59,2.59,5.04,3.76,1.47,1.16,2.69,2.21,3.64,3.08-.48-3.93-.48-9.85,.87-16.63,.38-1.86,.78-3.55,1.29-5.12,.51-1.56,1.03-2.97,1.55-4.22,1.02-2.5,1.98-4.37,2.59-5.59,.85-1.73,1.73-3.67,2.59-5.84,.86-2.17,1.84-4.62,2.71-7.29,.89-2.68,1.73-5.6,2.48-8.78,.78-3.19,1.65-6.69,2.31-10.44,.84,1.17,1.8,2.58,2.8,4.22,1,1.63,2.03,3.49,3.18,5.52,1.67,3.06,3.02,6.06,4.11,8.95,1.11,2.89,2.13,5.62,2.83,8.21,.75,2.58,1.18,5.01,1.6,7.15,.41,2.14,.63,4.04,.71,5.62,.54,13.05-2.45,25.45-6.25,35.92-.98,2.62-1.93,5.08-2.89,7.38-.97,2.3-1.94,4.44-2.88,6.38-1.87,3.88-3.58,6.97-4.71,8.96-2.46-.39-5.85-1.03-9.91-2.17-2.03-.57-4.23-1.26-6.56-2.1-1.17-.42-2.37-.88-3.6-1.38-1.21-.51-2.43-1.07-3.69-1.68-2.51-1.21-5.11-2.61-7.77-4.21-1.33-.8-2.68-1.66-4.03-2.58-1.35-.92-2.65-1.92-3.98-2.96-2.66-2.1-5.33-4.44-7.97-7.05-1.34-1.29-2.61-2.68-3.85-4.14-1.25-1.46-2.49-2.98-3.71-4.58Z"/><path class="cls-1" d="M554.68,513.86c.77,3.43,1.51,6.86,2.32,10.28l2.71,10.18c.46,1.69,.88,3.4,1.38,5.08l1.55,5.03c1.06,3.35,2.03,6.72,3.15,10.04,2.35,6.61,4.55,13.26,7.23,19.75,2.47,6.56,5.37,12.94,8.15,19.36"/></g><g><path d="M595.2,694.2c-3.89-3.06-7.45-6.23-10.54-9.48-3.05-3.28-5.77-6.55-8.1-9.73-2.27-3.23-4.22-6.33-5.86-9.21-1.67-2.86-2.88-5.59-3.94-7.91,4.36,4.67,8.75,7.88,12.71,10.18,1.98,1.15,3.85,2.08,5.63,2.8,1.8,.72,3.47,1.25,5,1.67,5.69,1.51,10.54,1.69,15.8,2.04,2.62,.18,5.31,.42,8.19,.92,2.89,.49,5.91,1.27,9.37,2.4,4.44,1.47,7.86,3.17,10.14,4.37-.7-1.87-1.43-4.23-2.08-6.97-.64-2.74-1.21-5.85-1.38-9.35-.22-3.81-.05-7.1,.24-9.76,.31-2.68,.77-4.76,1.02-6.1,.37-1.9,.7-4.02,.97-6.37,.13-1.17,.24-2.4,.33-3.69,.11-1.3,.21-2.66,.27-4.08,.13-2.83,.14-5.9,0-9.2-.1-3.32-.28-6.92-.68-10.75,1.14,.91,2.46,2.02,3.89,3.33,1.44,1.31,2.93,2.84,4.59,4.52,9.55,10.21,15.12,20.61,17.04,26.77,4.08,12.55,4.35,25.4,3.34,36.51-.46,5.5-1.29,10.58-2.13,14.8-.81,4.21-1.68,7.61-2.27,9.81-2.49,.24-5.95,.48-10.19,.42-4.2-.09-9.16-.5-14.67-1.51-10.9-2.11-24.01-6.76-36.69-16.45Z"/><path class="cls-1" d="M592.02,619.91c13.46,24.67,29.08,48.11,46.83,69.78"/></g><g><path d="M678.22,784c-9.69-4.09-17.38-9.21-23.53-14.32-3.09-2.54-5.71-5.11-8.04-7.5-2.28-2.42-4.2-4.69-5.8-6.68,10.86,6.81,20.01,8.35,26.35,8.48,5.9,.1,10.74-1.01,15.91-1.95,5.18-.98,10.7-1.68,17.94-1.35,4.68,.22,8.44,.91,10.94,1.47-1.17-1.62-2.52-3.69-3.88-6.15-1.35-2.46-2.76-5.31-3.84-8.58-2.39-7.17-2.58-12.84-2.75-15.55-.46-7.69-2.24-18.62-7.5-33.15,2.63,1.24,6.22,2.99,10.15,5.5,11.83,7.46,19.39,15.94,22.61,20.93,1.83,2.69,3.4,5.49,4.77,8.37,1.36,2.88,2.61,5.69,3.64,8.61,2.03,5.85,3.57,11.53,4.59,17.02,.5,2.75,.95,5.34,1.29,7.81,.35,2.47,.6,4.81,.8,6.96,.19,2.15,.32,4.1,.4,5.81,.09,1.69,.15,3.12,.18,4.26-2.34,.98-5.58,2.17-9.64,3.27-2.03,.55-4.28,1.08-6.71,1.55-1.22,.23-2.48,.45-3.8,.65-1.3,.18-2.64,.33-4.03,.45-5.55,.49-11.86,.6-18.57-.32-1.69-.22-3.41-.48-5.16-.8-1.76-.31-3.53-.7-5.3-1.19-3.57-.95-7.24-2.12-11.01-3.59Z"/><path class="cls-1" d="M656,712.45c9.52,10.33,19.55,20.18,30.02,29.52,10.45,9.36,21.59,17.9,33.1,25.87"/></g><g><path d="M783.43,846.83c-9.94-1.08-18.8-3.62-26.11-6.75-7.36-3.05-13.16-6.69-17.42-9.55,12.48,3.35,21.63,2.19,27.71,.46,5.67-1.67,9.94-4.12,14.59-6.5,2.34-1.22,4.76-2.42,7.48-3.5,2.72-1.1,5.71-2.02,9.25-2.87,4.56-1.09,8.34-1.4,10.93-1.63-1.59-1.19-3.45-2.83-5.44-4.81-1.99-1.99-4.1-4.35-6.08-7.23-2.18-3.14-3.76-5.98-4.88-8.44-1.12-2.46-1.83-4.44-2.31-5.72-.68-1.81-1.5-3.77-2.49-5.91-.97-2.17-2.12-4.49-3.48-6.95-.68-1.23-1.42-2.49-2.21-3.79-.77-1.33-1.61-2.69-2.5-4.08-1.78-2.79-3.85-5.65-6.1-8.79,2.83,.44,6.77,1.03,11.24,2.28,6.71,1.83,12.53,4.26,17.31,6.72,2.37,1.27,4.51,2.5,6.35,3.69,1.84,1.2,3.36,2.37,4.56,3.41,9.93,8.51,16.9,19.24,21.93,29.15,1.25,2.46,2.38,4.88,3.38,7.2,1.01,2.29,1.9,4.45,2.67,6.46,1.55,4.01,2.61,7.39,3.29,9.54-1.98,1.56-4.77,3.56-8.39,5.76-1.81,1.08-3.83,2.24-6.03,3.33-2.21,1.09-4.61,2.16-7.22,3.18-10.39,4.03-24.05,7.01-40.03,5.36Z"/><path class="cls-1" d="M741.93,784.88c24.15,14.38,49.79,26.13,76.3,35.15"/></g><g><path d="M901.09,878.9c-9.84,1.62-18.98,1.41-26.82,.36-3.92-.5-7.51-1.24-10.73-2.05-3.22-.77-6.05-1.71-8.46-2.55,12.82-.05,21.3-3.62,26.69-6.91,5.01-3.08,8.48-6.56,12.34-10.12,3.85-3.53,8.09-7.11,14.46-10.49,2.06-1.1,3.98-1.99,5.7-2.7,1.72-.74,3.22-1.29,4.44-1.71-1.84-.78-4.07-1.8-6.5-3.23-1.22-.71-2.49-1.5-3.79-2.39-1.3-.9-2.63-1.91-3.96-3.02-5.85-4.88-9.06-9.56-10.67-11.79-1.13-1.57-2.44-3.27-3.97-5.07-1.52-1.82-3.25-3.76-5.23-5.77-3.95-4.04-8.85-8.49-14.96-13.19,1.44-.2,3.16-.41,5.09-.56,1.93-.14,4.09-.22,6.44-.25,7.01,.03,13.32,.78,18.62,1.96,2.65,.55,5.05,1.22,7.15,1.91,2.1,.67,3.89,1.38,5.33,2.08,11.88,5.61,21.38,14.27,28.79,22.52,7.38,8.25,12.58,16.13,15,20-3.03,3.98-8.73,10.83-17.76,17.44-9.01,6.6-21.42,12.92-37.21,15.51Z"/><path class="cls-1" d="M844.84,830.21c13.58,3.62,27.31,6.59,41.15,8.91,6.92,1.13,13.86,2.13,20.82,2.95,6.96,.8,13.94,1.46,20.92,1.94"/></g></g></g><path d="M624.09,196.41c-1.79-2.94-3.89-7.42-3.73-12.81,.4-13.06,13.82-22.03,23.49-28.7,13.57-9.37,32.29-22.87,57-42.4-9.73,12.83-16.61,24.04-21.15,32.04-11.87,20.89-14.28,31.29-25.61,40.37-10.13,8.12-21.72,10.65-30,11.5Z"/><path d="M1285.54,196.41c1.79-2.94,3.89-7.42,3.73-12.81-.4-13.06-13.82-22.03-23.49-28.7-13.57-9.37-32.29-22.87-57-42.4,9.73,12.83,16.61,24.04,21.15,32.04,11.87,20.89,14.28,31.29,25.61,40.37,10.13,8.12,21.72,10.65,30,11.5Z"/></svg>